<?xml version="1.0" encoding="UTF-8"?>
<svg width="20px" height="20px" viewBox="0 0 20 20" version="1.1" xmlns="http://www.w3.org/2000/svg" xmlns:xlink="http://www.w3.org/1999/xlink">
    <!-- Generator: Sketch 51.3 (57544) - http://www.bohemiancoding.com/sketch -->
    <title>011-bank</title>
    <desc>Created with Sketch.</desc>
    <defs></defs>
    <g id="Page-1" stroke="none" stroke-width="1" fill="none" fill-rule="evenodd">
        <g id="fund_level_lading_page" transform="translate(-531.000000, -327.000000)" fill="#000000" fill-rule="nonzero">
            <g id="main_tabs" transform="translate(87.000000, 310.000000)">
                <g id="tab2" transform="translate(444.000000, 17.000000)">
                    <g id="011-bank">
                        <path d="M19.7542707,6.20873096 L13.143051,1.92722445 C13.0110587,1.84174609 12.8352772,1.88019956 12.7503943,2.01297805 C12.6655113,2.14579585 12.7036364,2.32272898 12.8355897,2.40820734 L19.3501686,6.62711884 L17.8314947,6.62711884 L10.4156255,1.8245246 C10.1631643,1.66103839 9.83687478,1.66107771 9.58437445,1.8245246 L2.16850527,6.62711884 L0.649831382,6.62711884 L9.99964844,0.571602134 L11.3238299,1.42913804 C11.4558222,1.51457708 11.6315647,1.47620225 11.7164866,1.34338445 C11.8013696,1.21056664 11.7632445,1.03363351 11.6312912,0.948155153 L10.3071098,0.0906192512 C10.120547,-0.0302064171 9.87949203,-0.0302064171 9.69292928,0.0906192512 L0.245729285,6.20873096 C0.0445571441,6.33903238 -0.0452867248,6.58178464 0.0221743019,6.81281998 C0.0896353287,7.04385533 0.295690289,7.19908467 0.534909355,7.19908467 L1.96788,7.19908467 L1.96788,8.18479879 L1.96788,9.04807519 C1.96788,9.27568983 2.12827084,9.46630579 2.34123987,9.51140408 L2.34123987,10.0147199 C2.34123987,10.2757945 2.55225577,10.4881929 2.81163112,10.4881929 L2.85069367,10.4881929 L2.85069367,13.9919407 C2.85069367,14.149883 2.97788134,14.277904 3.13479561,14.277904 C3.29170988,14.277904 3.41889754,14.149883 3.41889754,13.9919407 L3.41889754,10.2022297 C3.41889754,10.0442873 3.29170988,9.9162664 3.13479561,9.9162664 L2.90948281,9.9162664 L2.90948281,9.52150893 L4.92171203,9.52150893 L4.92171203,9.91618776 L4.69639923,9.91618776 C4.53948496,9.91618776 4.4122973,10.0442087 4.4122973,10.202151 L4.4122973,16.5204724 C4.4122973,16.6784147 4.53948496,16.8064356 4.69639923,16.8064356 L4.92171203,16.8064356 L4.92171203,17.2355968 L2.90948281,17.2355968 L2.90948281,16.8064356 L3.13479561,16.8064356 C3.29170988,16.8064356 3.41889754,16.6784147 3.41889754,16.5204724 L3.41889754,15.789542 C3.41889754,15.6315997 3.29170988,15.5035787 3.13479561,15.5035787 C2.97788134,15.5035787 2.85069367,15.6315997 2.85069367,15.789542 L2.85069367,16.2345091 L2.81163112,16.2345091 C2.55225577,16.2345091 2.34123987,16.4468682 2.34123987,16.7079429 L2.34123987,17.2112586 C2.12823178,17.2563569 1.96788,17.4469729 1.96788,17.6745875 L1.96788,18.2518614 L0.961472419,18.2518614 C0.647409504,18.2518614 0.391901353,18.5090435 0.391901353,18.825164 L0.391901353,19.4266973 C0.391901353,19.7428179 0.647409504,20 0.961472419,20 L19.0385276,20 C19.3525905,20 19.6080986,19.7428179 19.6080986,19.4266973 L19.6080986,18.825164 C19.6080986,18.5090435 19.3525905,18.2518614 19.0385276,18.2518614 L18.03212,18.2518614 L18.03212,17.6745875 C18.03212,17.4469729 17.8717292,17.2563569 17.6587601,17.2112586 L17.6587601,16.7079429 C17.6587601,16.4468682 17.4477442,16.2345091 17.1883689,16.2345091 L17.1493063,16.2345091 L17.1493063,10.4881143 L17.1883689,10.4881143 C17.4477442,10.4881143 17.6587601,10.2757159 17.6587601,10.0146412 L17.6587601,9.51132544 C17.8717682,9.46622715 18.03212,9.27561119 18.03212,9.04799655 L18.03212,8.18472015 L18.03212,7.19900603 L19.4650906,7.19900603 C19.7043097,7.19900603 19.9103647,7.0437767 19.9778257,6.81274135 C20.0452867,6.58178464 19.9554429,6.33899306 19.7542707,6.20873096 Z M9.89179673,2.30550749 C9.95753901,2.26292558 10.042461,2.2629649 10.1082033,2.30550749 L16.7813762,6.62715815 L3.21866291,6.62715815 L9.89179673,2.30550749 Z M2.53608388,7.19904535 L17.4638771,7.19904535 L17.4638771,7.89879622 L14.4208262,7.89879622 L11.663596,7.89879622 L8.33640405,7.89879622 L5.57917384,7.89879622 L2.53608388,7.89879622 L2.53608388,7.19904535 Z M11.5743771,17.2113373 L11.5743771,16.7080215 C11.5743771,16.4469468 11.3633612,16.2345878 11.1039858,16.2345878 L11.0649233,16.2345878 L11.0649233,10.4881929 L11.1039858,10.4881929 C11.3633612,10.4881929 11.5743771,10.2757945 11.5743771,10.0147199 L11.5743771,9.51140408 C11.7873852,9.46630579 11.947737,9.27568983 11.947737,9.04807519 L11.947737,8.47076205 L14.1367242,8.47076205 L14.1367242,9.04807519 C14.1367242,9.27568983 14.2971151,9.46630579 14.5100841,9.51140408 L14.5100841,10.0147199 C14.5100841,10.2757945 14.7211,10.4881929 14.9804753,10.4881929 L15.0195379,10.4881929 L15.0195379,16.2345878 L14.9804753,16.2345878 C14.7211,16.2345878 14.5100841,16.4469468 14.5100841,16.7080215 L14.5100841,17.2113373 C14.2971151,17.2564356 14.1367242,17.4470515 14.1367242,17.6746662 L14.1367242,18.25194 L11.947737,18.25194 L11.947737,17.6746662 C11.947737,17.4470515 11.7873461,17.2564356 11.5743771,17.2113373 Z M5.48991591,17.2113373 L5.48991591,16.7080215 C5.48991591,16.4469468 5.27890001,16.2345878 5.01952466,16.2345878 L4.98046211,16.2345878 L4.98046211,10.4881929 L5.01952466,10.4881929 C5.27890001,10.4881929 5.48991591,10.2757945 5.48991591,10.0147199 L5.48991591,9.51140408 C5.70288494,9.46630579 5.86327578,9.27568983 5.86327578,9.04807519 L5.86327578,8.47076205 L8.05230211,8.47076205 L8.05230211,9.04807519 C8.05230211,9.27568983 8.21269295,9.46630579 8.42566198,9.51140408 L8.42566198,10.0147199 C8.42566198,10.2757945 8.63667788,10.4881929 8.89605323,10.4881929 L8.93511578,10.4881929 L8.93511578,16.2345878 L8.89605323,16.2345878 C8.63667788,16.2345878 8.42566198,16.4469468 8.42566198,16.7080215 L8.42566198,17.2113373 C8.21269295,17.2564356 8.05230211,17.4470515 8.05230211,17.6746662 L8.05230211,18.25194 L5.86327578,18.25194 L5.86327578,17.6746662 C5.86327578,17.4470515 5.70288494,17.2564356 5.48991591,17.2113373 Z M10.7808213,16.8064356 L11.0061341,16.8064356 L11.0061341,17.2355968 L8.99390492,17.2355968 L8.99390492,16.8064356 L9.21921772,16.8064356 C9.37613199,16.8064356 9.50331966,16.6784147 9.50331966,16.5204724 L9.50331966,10.2021903 C9.50331966,10.044248 9.37613199,9.91618776 9.21921772,9.91618776 L8.99390492,9.91618776 L8.99390492,9.52150893 L11.0061341,9.52150893 L11.0061341,9.91618776 L10.7808213,9.91618776 C10.6239071,9.91618776 10.4967194,10.0442087 10.4967194,10.202151 L10.4967194,16.5204724 C10.4967194,16.6784147 10.6239071,16.8064356 10.7808213,16.8064356 Z M8.70976392,8.94958241 L8.70851392,8.94958241 L8.62050599,8.94958241 L8.62050599,8.47076205 L11.379494,8.47076205 L11.379494,8.94958241 L11.2902361,8.94958241 C11.2900408,8.94958241 11.2898064,8.94962173 11.2896111,8.94962173 C11.2894158,8.94962173 11.2891814,8.94958241 11.2889861,8.94958241 L8.70976392,8.94958241 Z M8.62050599,17.7934473 C8.6482404,17.8025298 8.67777169,17.8076019 8.70851392,17.8076019 L11.288947,17.8076019 C11.3206267,17.8076019 11.3510174,17.8021367 11.379494,17.7925036 L11.379494,18.2519007 L8.62050599,18.2519007 L8.62050599,17.7934473 Z M2.62538087,8.94958241 L2.53612294,8.94958241 L2.53612294,8.47076205 L5.29511096,8.47076205 L5.29511096,8.94958241 L5.2950719,8.94958241 L5.20581397,8.94958241 L2.62538087,8.94958241 Z M2.53608388,17.7929755 C2.56416985,17.8023333 2.59413083,17.8076019 2.62534181,17.8076019 L5.20581397,17.8076019 C5.23702495,17.8076019 5.26698593,17.8023333 5.2950719,17.7929755 L5.2950719,18.2519007 L2.53608388,18.2519007 L2.53608388,17.7929755 Z M19.0398948,18.8252033 L19.0391135,19.4280735 C19.0391135,19.4280735 19.0389573,19.4281128 19.0385276,19.4281128 L0.96010523,19.426776 L0.961472419,18.8238665 L19.0398948,18.8252033 Z M17.3738379,17.8075626 C17.4053614,17.8075626 17.4355567,17.802176 17.4639161,17.7926609 L17.4639161,18.2519007 L14.7049281,18.2519007 L14.7049281,17.7932507 C14.7327797,17.8024512 14.7624672,17.8075626 14.7934048,17.8075626 L17.3738379,17.8075626 Z M15.3036008,9.91622708 L15.078288,9.91622708 L15.078288,9.52150893 L17.0905172,9.52150893 L17.0905172,9.91618776 L16.8652044,9.91618776 C16.7082901,9.91618776 16.5811025,10.0442087 16.5811025,10.202151 L16.5811025,16.5204724 C16.5811025,16.6784147 16.7082901,16.806475 16.8652044,16.806475 L17.0905172,16.806475 L17.0905172,17.2356361 L15.078288,17.2356361 L15.078288,16.806475 L15.3036008,16.806475 C15.460515,16.806475 15.5877027,16.678454 15.5877027,16.5205117 L15.5877027,10.2021903 C15.5877027,10.044248 15.460515,9.91622708 15.3036008,9.91622708 Z M17.4639552,8.94958241 L17.3746582,8.94958241 C17.374541,8.94958241 17.3743848,8.94962173 17.3742676,8.94962173 C17.3741504,8.94962173 17.3739941,8.94958241 17.3738769,8.94958241 L14.7942251,8.94958241 L14.7934438,8.94958241 L14.7049672,8.94958241 L14.7049672,8.47076205 L17.4639552,8.47076205 L17.4639552,8.94958241 Z" id="Shape"></path>
                        <path d="M9.94353793,4.35620729 L9.94353793,3.43505201 C10.2336047,3.45772997 10.3413332,3.60292572 10.4407635,3.60292572 C10.5650884,3.60292572 10.6231017,3.4305083 10.6231017,3.34429959 C10.6231017,3.12198254 10.2253065,3.02668641 9.94353793,3.017599 L9.94353793,2.89508121 C9.94353793,2.8405973 9.88141253,2.79069767 9.81925008,2.79069767 C9.74878942,2.79069767 9.69907428,2.84063787 9.69907428,2.89508121 L9.69907428,3.02668641 C9.30542815,3.07204234 8.91178202,3.29894366 8.91178202,3.87067983 C8.91178202,4.45150342 9.32617366,4.61487399 9.69907428,4.76006975 L9.69907428,5.82633965 C9.27642147,5.79007114 9.16454388,5.4724174 9.02780871,5.4724174 C8.92422932,5.4724174 8.8372093,5.62215686 8.8372093,5.7310841 C8.8372093,5.95344172 9.18525235,6.25746434 9.69907428,6.26655176 L9.69907428,6.40724437 C9.69907428,6.46172828 9.74878942,6.51162791 9.81925008,6.51162791 C9.88137548,6.51162791 9.94353793,6.46168771 9.94353793,6.40724437 L9.94353793,6.25296121 C10.3910483,6.18492732 10.6976744,5.87636099 10.6976744,5.31821537 C10.6976744,4.70108271 10.3040283,4.50140305 9.94353793,4.35620729 Z M9.72396889,4.26999858 C9.50432576,4.17924617 9.32617366,4.08395004 9.32617366,3.82528334 C9.32617366,3.58933517 9.4919155,3.47590479 9.72396889,3.44413942 L9.72396889,4.26999858 Z M9.91871741,5.81733338 L9.91871741,4.85986901 C10.1217271,4.95516513 10.2833198,5.08222663 10.2833569,5.368115 C10.2833569,5.62674113 10.1424726,5.77197745 9.91871741,5.81733338 Z" id="Shape"></path>
                    </g>
                </g>
            </g>
        </g>
    </g>
</svg>