<?xml version="1.0" encoding="UTF-8"?>
<svg width="19px" height="20px" viewBox="0 0 19 20" version="1.1" xmlns="http://www.w3.org/2000/svg" xmlns:xlink="http://www.w3.org/1999/xlink">
    <!-- Generator: Sketch 51.3 (57544) - http://www.bohemiancoding.com/sketch -->
    <title>012-box</title>
    <desc>Created with Sketch.</desc>
    <defs></defs>
    <g id="Page-1" stroke="none" stroke-width="1" fill="none" fill-rule="evenodd">
        <g id="fund_level_lading_page" transform="translate(-856.000000, -327.000000)" fill="#000000" fill-rule="nonzero">
            <g id="main_tabs" transform="translate(87.000000, 310.000000)">
                <g id="tab3" transform="translate(769.000000, 17.000000)">
                    <g id="012-box" transform="translate(0.600000, 0.000000)">
                        <path d="M18.2374833,4.41294491 L9.32502167,0.0291210653 C9.24600613,-0.00970702177 9.15399387,-0.00970702177 9.07501667,0.0291210653 L0.162516669,4.41294491 C0.0631434191,4.46181205 0,4.56435101 0,4.67677278 L0,15.3232077 C0,15.4356295 0.0631434191,15.5381684 0.162516669,15.5870356 L9.07497833,19.9708594 C9.11446693,19.9902734 9.15725263,20 9.2,20 C9.24274737,20 9.28549473,19.9902734 9.32502167,19.9708594 L18.2374833,15.5870356 C18.3368566,15.5381684 18.4,15.4356295 18.4,15.3232077 L18.4,4.67681184 C18.4,4.56431195 18.3368182,4.46185111 18.2374833,4.41294491 Z M9.2,0.618300177 L17.4510851,4.67677278 L15.0592646,5.853256 C15.0441209,5.8414982 15.0281338,5.83063884 15.0105747,5.82200603 L6.81554041,1.79115059 L9.2,0.618300177 Z M6.16616382,2.12240027 L14.405249,6.17497444 L12.7177824,7.00501269 L4.48210928,2.95407915 L6.16616382,2.12240027 Z M14.5980147,6.73075515 L14.5980147,9.79895527 L13.0218062,10.574267 L13.0218062,7.50606689 L14.5980147,6.73075515 Z M17.8249233,15.1393797 L9.48753834,19.2402351 L9.48753834,9.24446363 L11.4762685,8.26626146 C11.6192709,8.19590996 11.6792322,8.02079295 11.6101847,7.8750509 C11.5411372,7.72938698 11.3692659,7.66821517 11.2262252,7.73860572 L9.2,8.73528444 L8.4027137,8.34309732 C8.25967296,8.2726677 8.08780171,8.33383952 8.01875417,8.4795425 C7.94970663,8.62524548 8.00966796,8.80040156 8.15267036,8.87075306 L8.91246166,9.24446363 L8.91246166,19.2402351 L0.575076677,15.1393016 L0.575076677,5.14353013 L6.92392319,8.26637865 C6.9642169,8.28622238 7.00681091,8.29559737 7.04871483,8.29559737 C7.15560241,8.29559737 7.25827277,8.2345818 7.30784438,8.12993347 C7.37689192,7.98423048 7.31693059,7.80907441 7.17392819,7.73872291 L0.948914855,4.67677278 L3.80532071,3.27177415 L12.4427424,7.52032469 C12.4440075,7.52212156 12.4454261,7.52372312 12.4467296,7.52548093 L12.4467296,11.0410634 C12.4467296,11.1418837 12.4976047,11.2355945 12.5814125,11.2892273 C12.6279554,11.3189929 12.6810541,11.3340319 12.7343062,11.3340319 C12.7769386,11.3340319 12.819686,11.3243835 12.8592896,11.3048913 L15.0105747,10.2467283 C15.109948,10.1978611 15.1730914,10.0953612 15.1730914,9.98290041 L15.1730914,6.44794292 L17.8249233,5.1435692 L17.8249233,15.1393797 Z" id="Shape"></path>
                        <path d="M3.06187189,14.4752786 L1.95059135,13.6380566 C1.82902315,13.5463989 1.68302405,13.6260084 1.6243573,13.8156276 C1.56569055,14.0052468 1.61663713,14.2331965 1.73814018,14.3247525 L2.84942072,15.1619745 C2.88365656,15.1877993 2.91984688,15.2 2.95545086,15.2 C3.04626868,15.2 3.13350331,15.1205938 3.1756222,14.9844035 C3.23432152,14.7947335 3.18337494,14.5668855 3.06187189,14.4752786 Z" id="Shape"></path>
                        <path d="M4.63135664,13.1105808 L2.02798154,12.0256679 C1.87960924,11.9638426 1.70133183,12.0175321 1.62971068,12.1456111 C1.5581293,12.2736559 1.62032557,12.4275841 1.7686581,12.4894095 L4.3720332,13.5743224 C4.41382877,13.5917269 4.45801039,13.6 4.5014762,13.6 C4.6123478,13.6 4.71884499,13.5463791 4.77026429,13.4544135 C4.84188544,13.3263001 4.77968917,13.1723718 4.63135664,13.1105808 Z" id="Shape"></path>
                    </g>
                </g>
            </g>
        </g>
    </g>
</svg>