<?xml version="1.0" encoding="UTF-8"?>
<svg width="20px" height="20px" viewBox="0 0 20 20" version="1.1" xmlns="http://www.w3.org/2000/svg" xmlns:xlink="http://www.w3.org/1999/xlink">
    <!-- Generator: Sketch 51.3 (57544) - http://www.bohemiancoding.com/sketch -->
    <title>013-tootsie-candy</title>
    <desc>Created with Sketch.</desc>
    <defs></defs>
    <g id="Page-1" stroke="none" stroke-width="1" fill="none" fill-rule="evenodd">
        <g id="fund_level_lading_page" transform="translate(-1177.000000, -327.000000)" fill="#000000" fill-rule="nonzero">
            <g id="main_tabs" transform="translate(87.000000, 310.000000)">
                <g id="tab4" transform="translate(1090.000000, 17.000000)">
                    <g id="013-tootsie-candy">
                        <path d="M19.906583,4.06670619 C19.7119018,3.8720246 19.668072,3.73900283 19.6124974,3.57057666 C19.5470505,3.37210784 19.465561,3.12504308 19.163603,2.8230845 C18.86156,2.52108337 18.6145808,2.43963625 18.4160699,2.37414664 C18.247644,2.31861452 18.1146225,2.27474202 17.9199839,2.08006043 C17.7253027,1.88542141 17.6814303,1.75239963 17.6258983,1.58397347 C17.5604088,1.38546208 17.4789619,1.13843988 17.1769614,0.836438748 C16.8749609,0.534480169 16.6279392,0.452990501 16.4294708,0.387543447 C16.261045,0.331968771 16.1280235,0.288138819 15.9333423,0.0934572378 C15.8626613,0.0227761216 15.7628739,-0.0107133657 15.6639376,0.00303136666 C15.5649161,0.0167335457 15.4780224,0.0760529172 15.4291712,0.163287287 C15.3853839,0.2415429 14.4719356,1.89886827 14.5640208,3.66342808 C14.0741477,3.43061869 13.5346148,3.30763951 12.9761458,3.30763951 C11.9870803,3.30763951 11.0572064,3.69283244 10.3578436,4.39215421 L4.39502504,10.3549425 C3.69566216,11.0543494 3.31051258,11.9841827 3.31051258,12.9732077 C3.31051258,13.5328694 3.4340447,14.0734671 3.66783233,14.5641498 C1.90148894,14.470192 0.241571255,15.3852593 0.163273251,15.4291318 C0.0760390623,15.4779405 0.016762367,15.5648344 0.00301766309,15.6638986 C-0.0106844876,15.7628777 0.0227623771,15.8626228 0.0934433468,15.9333039 C0.288124525,16.1279855 0.331954386,16.2610073 0.387528947,16.4294334 C0.452975865,16.6279022 0.534465364,16.874967 0.836423318,17.1769256 C1.13846638,17.4789267 1.38544552,17.5603738 1.58395649,17.6258634 C1.7523823,17.6813956 1.8854038,17.7252681 2.08004243,17.9199496 C2.2747236,18.1145887 2.31859602,18.2476104 2.37412803,18.4160366 C2.4396175,18.614548 2.52106444,18.8615702 2.82306495,19.1635713 C3.12506546,19.4655299 3.37208715,19.5470196 3.57055557,19.6124666 C3.73898138,19.6680413 3.87200288,19.7118713 4.06668406,19.9065528 C4.12693948,19.9668084 4.20825877,20 4.29234401,20 C4.30689723,20 4.32153555,19.9990213 4.33608877,19.9969787 C4.43511021,19.9832765 4.52200397,19.9239572 4.57085512,19.8367228 C4.61472753,19.758297 5.53217588,18.0939077 5.43545232,16.3250075 C5.92268718,16.554753 6.45864552,16.6759875 7.01328475,16.6759875 C8.00235024,16.6759875 8.93222414,16.2907946 9.63158702,15.5914728 L15.5943204,9.62872705 C16.7264074,8.49659514 16.9704079,6.80782285 16.32696,5.43534962 C16.4147048,5.44011559 16.5022369,5.44266879 16.5893434,5.44262624 C18.2562398,5.44254113 19.7622423,4.61249547 19.8367105,4.57083574 C19.9239447,4.52202704 19.9832214,4.4351331 19.9969661,4.3360689 C20.0107108,4.23713236 19.977264,4.13742986 19.906583,4.06670619 Z M4.18034383,19.184848 C4.02540739,19.0903796 3.88927951,19.0455283 3.77051335,19.0063367 C3.60213009,18.9508046 3.46910859,18.9069321 3.27446996,18.7122505 C3.07978879,18.5176115 3.03591637,18.3845897 2.98038436,18.2161635 C2.91489489,18.0176521 2.83344795,17.7706299 2.53144744,17.4686288 C2.22940438,17.1666277 1.98242524,17.0851806 1.78391427,17.0196909 C1.61548846,16.9641588 1.48246696,16.9202863 1.28782833,16.7256047 C1.09314715,16.5309657 1.04927474,16.3979439 0.993742731,16.2295603 C0.954551175,16.1106663 0.909572377,15.9744104 0.814976473,15.8192609 C1.43527539,15.5379407 2.80600109,15.0219813 4.09779049,15.2549184 C4.18970554,15.3718975 4.28830145,15.4847065 4.39511014,15.5915579 C4.50583373,15.7022817 4.62289776,15.8041545 4.74447243,15.8988357 C4.97800474,17.1881597 4.46162089,18.5629733 4.18034383,19.184848 Z M4.84643005,15.140152 C4.26757801,14.5613413 3.94881152,13.7917639 3.94881152,12.9732077 C3.94881152,12.2620561 4.1897481,11.588011 4.63247224,11.0437536 L8.94281991,15.3540677 C8.39856367,15.7968353 7.72451999,16.0377298 7.0133273,16.0377298 C6.19481529,16.0377724 5.42519698,15.7190052 4.84643005,15.140152 Z M5.07209,10.5806455 L5.56796318,10.0847713 L5.9542617,10.4711132 C6.01660223,10.5334538 6.09826194,10.5646029 6.1799642,10.5646029 C6.26162391,10.5646029 6.34332618,10.5334538 6.40562416,10.4711557 C6.53030522,10.346517 6.53026266,10.1444311 6.40566671,10.0198349 L6.01932564,9.63345047 L9.63626788,6.01650073 L13.9701475,10.3503468 L10.3532053,13.967254 L7.30839163,10.922434 C7.18371057,10.7978378 6.98166768,10.7978378 6.85702917,10.922434 C6.73239066,11.0471154 6.73239066,11.2491587 6.85702917,11.3737974 L9.90184279,14.4186174 L9.40601217,14.914449 L5.07209,10.5806455 Z M10.0876303,5.56509479 L10.5835035,5.06922058 L14.9173406,9.40310918 L14.42151,9.89894083 L10.0876303,5.56509479 Z M15.3569158,8.93995851 L11.0466532,4.62960191 C11.5909095,4.1868343 12.2649106,3.94593978 12.9761458,3.94593978 C13.7946578,3.94593978 14.5642336,4.26470693 15.1430431,4.84356016 C16.2616407,5.9621601 16.3328749,7.73752847 15.3569158,8.93995851 Z M15.5944055,4.39215421 C15.4863203,4.28411126 15.3721924,4.18449386 15.2537667,4.091685 C15.0244471,2.80512698 15.5391289,1.43550483 15.8196825,0.815162073 C15.9746189,0.909630512 16.1107468,0.954481744 16.229513,0.993673381 C16.3978963,1.0492055 16.5309178,1.09307801 16.7255564,1.28775959 C16.9202376,1.48239862 16.96411,1.61542039 17.019642,1.78384656 C17.0851314,1.98235794 17.1665784,2.22938014 17.4685789,2.53138128 C17.770622,2.83338241 18.0176011,2.91482952 18.2161121,2.98031913 C18.3845379,3.03585125 18.5175594,3.07972376 18.712198,3.27440534 C18.9068792,3.46904437 18.9507516,3.60206614 19.0062836,3.77044976 C19.0454752,3.88934382 19.090454,4.02559965 19.1850499,4.18074917 C18.5650488,4.46194171 17.1954295,4.97747556 15.9042358,4.74547469 C15.8093846,4.62296359 15.7067887,4.50453762 15.5944055,4.39215421 Z" id="Shape"></path>
                    </g>
                </g>
            </g>
        </g>
    </g>
</svg>