<?xml version="1.0" encoding="UTF-8"?>
<svg width="146px" height="190px" viewBox="0 0 146 190" version="1.1" xmlns="http://www.w3.org/2000/svg" xmlns:xlink="http://www.w3.org/1999/xlink">
    <!-- Generator: Sketch 51.3 (57544) - http://www.bohemiancoding.com/sketch -->
    <title>Group</title>
    <desc>Created with Sketch.</desc>
    <defs></defs>
    <g id="Page-1" stroke="none" stroke-width="1" fill="none" fill-rule="evenodd">
        <g id="Desktop-Copy-5" transform="translate(-26.000000, -2.000000)" fill="#007DBA" fill-rule="nonzero">
            <g id="Group" transform="translate(25.000000, 3.000000)">
                <g id="ANZ-Logo-2009">
                    <path d="M45.797094,67.7514901 C45.797094,61.3790329 51.4049547,54.1252032 59.1500645,54.1252032 C63.5148386,54.1252032 66.8851436,55.4977977 69.9638426,57.5171089 C71.9262715,58.8112493 74.1853215,59.7979341 75.8203206,60.2050476 C77.6666803,60.64326 82.1367765,61.6037935 82.21129,56.2123667 C82.3008496,52.7052535 79.2063881,44.073175 70.6831849,37.1006495 C63.837253,31.7360809 55.1557086,28.5470251 45.6860401,28.5470251 C23.5562339,28.5470251 5.61064974,46.0776436 5.61064974,67.7514901 C5.61064974,89.4309909 23.5562339,106.993415 45.6860401,106.993415 C55.1557086,106.993415 63.837253,103.809307 70.6831849,98.439084 C79.2063881,91.4559565 82.3008496,82.8295324 82.21129,79.3273667 C82.1367765,73.93594 77.6666803,74.9120229 75.8203206,75.3297383 C74.1853215,75.7262499 71.9262715,76.7178823 69.9638426,78.0226245 C66.8851436,80.0369882 63.5148386,81.4145302 59.1500645,81.4145302 C51.4049547,81.3989808 45.797094,74.1550462 45.797094,67.7514901 M86.3009373,-1.59775078 C84.9518122,0.00949940549 82.9836516,2.82819498 82.0787419,8.61542652 C80.862165,16.6474367 82.7715746,23.8136239 84.5068804,28.1293097 C86.7824094,33.8020406 91.9560854,40.7908224 98.6959788,45.6182273 C105.817038,50.7120936 116.567766,53.3477295 127.77274,50.82094 C130.925953,50.106371 132.703531,49.3338448 134.914577,48.1803565 C137.919479,46.6720576 142.115165,42.695633 142.871764,39.2139644 C143.448527,36.4638278 141.845053,34.3137596 140.633491,33.2592226 C132.396879,26.245703 100.500066,-0.334709407 96.4268981,-3.21560288 C92.379523,-6.04490037 88.4904891,-4.19663334 86.3009373,-1.59775078 M84.5068804,107.389927 C82.7715746,111.705613 80.862165,118.866145 82.0787419,126.898156 C82.9836516,132.686094 84.9518122,135.530234 86.3009373,137.116987 C88.4904891,139.71587 92.379523,141.578979 96.4268981,138.734839 C100.500066,135.869495 132.396879,109.294737 140.633491,102.280511 C141.845053,101.225974 143.448527,99.0759056 142.871764,96.3201147 C142.115165,92.8179491 137.919479,88.857074 134.914577,87.3544293 C132.703531,86.1846848 130.925953,85.4284149 127.77274,84.6926421 C116.567766,82.1715069 105.817038,84.8488436 98.6959788,89.8953548 C91.9560854,94.728414 86.7824094,101.727091 84.5068804,107.389927" id="symbol01" transform="translate(74.301815, 67.762906) scale(1, -1) rotate(-90.000000) translate(-74.301815, -67.762906) "></path>
                </g>
                <g id="g001" transform="translate(74.506849, 166.585106) rotate(90.000000) translate(-74.506849, -166.585106) translate(51.698630, 101.000000)">
                    <path d="M32.9347296,2.22101805 L32.9347296,17.7594528 L24.4232558,11.3828278 L24.4232558,28.6464143 L32.6186843,34.7977571 C35.87565,37.0975125 39.162861,37.3201127 41.4441643,37.3201127 L42.7338331,37.3201127 C44.2243435,37.3201127 45.0348467,36.4092621 45.0348467,35.0575691 L45.0348467,2.22101805 C45.0348467,0.896814877 44.2943492,0.00306154432 42.7790309,0.00306154432 L35.1983615,0.00306154432 C33.6725084,0.00306154432 32.9347296,0.896814877 32.9347296,2.22101805 Z M2.86556793,90.6754435 C1.44030558,90.9228516 0.737529573,91.8759426 0.737529573,93.1160002 L0.737529573,97.5073261 C0.737529573,102.077 3.19418708,106.109618 6.90551045,108.36948 C6.90551045,108.36948 13.6984454,112.560331 21.344023,117.256392 L21.344023,87.4423763 L2.86556793,90.6754435 Z M2.99368522,41.5679554 C1.47768728,41.5679554 0.737529573,42.4590268 0.737529573,43.7932872 L0.737529573,52.7321615 C0.737529573,54.0563647 1.47768728,54.950118 2.99368522,54.950118 L20.1675189,54.950118 L4.72751654,63.4233421 C1.88208933,65.116646 0.800398799,67.9682086 0.737529573,71.2951433 L0.737529573,77.9020791 C0.737529573,79.2142136 1.47768728,80.1103136 2.99368522,80.1103136 L21.354218,80.1103136 L21.354218,69.0054452 L24.4232558,67.2973907 L24.4232558,80.1103136 L42.7790309,80.1103136 C44.2943492,80.1103136 45.0474206,79.2142136 45.0474206,77.9020791 L45.0474206,68.9410788 C45.0474206,67.6095004 44.2943492,66.728151 42.7790309,66.728151 L25.4971301,66.7331796 L41.0625311,58.1805033 C43.8930057,56.504632 44.9746962,53.6430121 45.0474206,50.3385385 L45.0474206,43.7932872 C45.0474206,42.4590268 44.2943492,41.5679554 42.7790309,41.5679554 L24.4232558,41.5679554 L24.4232558,52.5933716 L21.354218,54.2967327 L21.354218,41.5679554 L2.99368522,41.5679554 Z M24.4232558,86.912695 L24.4232558,101.636493 C26.5108539,101.260353 42.0337757,98.5445627 42.9370536,98.3836469 C44.3347894,98.1335569 45.0474206,97.2746687 45.0474206,96.0148318 L45.0474206,85.8851804 C45.0474206,84.9572324 44.7514255,84.4892356 44.2144883,84.0534219 C43.8403314,83.7563981 43.2731491,83.632694 42.4425956,83.7714839 L24.4232558,86.912695 Z M42.2696203,130.140855 C42.9645801,130.541837 43.6948826,130.541837 44.1689506,130.296843 C44.7235591,130.014637 45.0474206,129.385925 45.0474206,128.707564 L45.0474206,118.187022 C45.0474206,116.860472 44.3222156,115.674388 43.2381462,115.013627 L24.4232558,103.403886 L24.4232558,119.15255 C33.2082957,124.558853 42.0663998,130.004814 42.2696203,130.140855 Z M12.8226941,34.762892 L12.8226941,19.9599767 L21.344023,26.343977 L21.344023,9.08541912 L12.9504715,2.79059304 C10.3558416,0.847199163 8.03239885,0.396970084 5.97708489,0.396970084 L3.05383578,0.396970084 C1.55550918,0.396970084 0.737529573,1.29038818 0.737529573,2.65180314 L0.737529573,34.762892 C0.737529573,36.0874304 1.47768728,36.9734732 2.99368522,36.9734732 L10.5743546,36.9734732 C12.0849152,36.9734732 12.8226941,36.0874304 12.8226941,34.762892 Z" id="anztxt01"></path>
                </g>
            </g>
        </g>
    </g>
</svg>