<?xml version="1.0" encoding="UTF-8"?>
<svg width="192px" height="185px" viewBox="0 0 192 185" version="1.1" xmlns="http://www.w3.org/2000/svg" xmlns:xlink="http://www.w3.org/1999/xlink">
    <!-- Generator: Sketch 51.3 (57544) - http://www.bohemiancoding.com/sketch -->
    <title>image2vector (1)</title>
    <desc>Created with Sketch.</desc>
    <defs></defs>
    <g id="Page-1" stroke="none" stroke-width="1" fill="none" fill-rule="evenodd">
        <g id="Desktop-Copy" transform="translate(-2.000000, -4.000000)">
            <g id="image2vector-(1)" transform="translate(2.000000, 4.000000)">
                <path d="M91.1013084,8.14374083 C91.473617,8.21408208 92.0809073,8.21408208 92.4516901,8.14374083 C92.8239988,8.07187041 92.5203536,8.01223326 91.7772622,8.01223326 C91.0341708,8.01223326 90.7305256,8.07187041 91.1013084,8.14374083 M99.5041922,8.14374083 C99.874975,8.21408208 100.482265,8.21408208 100.854574,8.14374083 C101.225357,8.07187041 100.921712,8.01223326 100.17862,8.01223326 C99.4355287,8.01223326 99.1318836,8.07187041 99.5041922,8.14374083 M102.053896,8.1376242 C102.343808,8.21408208 102.815298,8.21408208 103.10521,8.1376242 C103.393597,8.06269547 103.157089,8 102.57879,8 C102.002017,8 101.765509,8.06269547 102.053896,8.1376242 M45.7345858,23.7273872 C45.406527,23.9766399 45.3180274,24.1693138 45.5301212,24.1693138 C45.7391634,24.1693138 46.111472,23.9659358 46.3586605,23.7182123 C46.9339079,23.1417198 46.4975133,23.1493656 45.7345858,23.7273872 M42.7698494,25.8208042 C42.4280579,26.071586 42.3471876,26.2902556 42.5470746,26.4141174 C42.7225479,26.5226876 42.8659783,26.4768128 42.8659783,26.3147221 C42.8659783,26.1511022 43.1024858,25.9706616 43.3908724,25.9140828 C43.679259,25.8559748 43.7799655,25.7229381 43.6121214,25.6174262 C43.4458032,25.5119143 43.0658653,25.6036638 42.7698494,25.8208042 M40.6153421,27.4937027 C39.9027678,28.1940569 39.8249491,28.379085 40.2399817,28.379085 C40.5283683,28.379085 40.7313071,28.262869 40.690109,28.1191282 C40.6489109,27.9753874 40.952556,27.5732189 41.3645369,27.2261001 C41.7780436,26.8789813 41.9809823,26.5991454 41.8146641,26.6022038 C41.6498718,26.6067912 41.1097191,27.0074306 40.6153421,27.4937027 M105.654914,29.8073183 C116.506795,29.8516639 134.26317,29.8516639 145.115052,29.8073183 C155.965407,29.7645019 147.087982,29.7278021 125.38422,29.7278021 C103.681983,29.7278021 94.8045586,29.7645019 105.654914,29.8073183 M84.9902589,34.2434049 C84.9902589,36.2282516 85.0390862,37.0020055 85.0985946,35.960649 C85.1565771,34.9208218 85.1565771,33.2968563 85.0970687,32.3518368 C85.0375604,31.4083465 84.988733,32.2585582 84.9902589,34.2434049 M165.593552,46.8910685 C165.593552,56.8474144 165.486743,62.931933 165.312795,62.8233628 C165.157158,62.7270259 164.977107,63.1597775 164.913021,63.7836739 C164.803159,64.8296178 164.790953,64.8066804 164.743651,63.4885465 L164.693298,62.0603131 L161.548511,62.0603131 C158.083294,62.0603131 158.347267,61.904339 157.991742,64.1659633 C157.858993,65.0085292 157.799485,63.901419 157.506521,55.2937902 C157.395133,51.986222 157.279168,67.5484602 157.251703,89.8772214 C157.21966,116.177205 157.303582,130.315797 157.492788,130.022199 C157.700304,129.701076 157.796433,130.087953 157.830002,131.375504 C157.874252,133.080515 157.88951,133.114156 158.092449,131.977992 C158.299965,130.81889 158.30912,130.811245 158.350318,131.751677 L158.393042,132.728808 L161.693467,132.728808 L164.993891,132.728808 L165.032038,134.157042 L165.070184,135.586804 L165.297536,133.782398 C165.567613,131.633931 166.034524,30.7859793 165.773603,30.7859793 C165.674423,30.7859793 165.593552,38.0326578 165.593552,46.8910685 M22.666709,32.8319923 C21.7496701,33.7907742 21.6001363,34.4758369 22.3706931,34.1791803 C22.709433,34.0492019 22.7552086,33.9406317 22.5064942,33.8580572 C22.2699867,33.778541 22.466822,33.4146014 23.0451211,32.8610463 C23.5456015,32.3808908 23.8477208,31.9878973 23.7149714,31.9878973 C23.582222,31.9878973 23.1107328,32.3671284 22.666709,32.8319923 M34.4630945,33.1913444 C34.2250611,33.5216425 33.8725886,33.7923034 33.678805,33.7923034 C33.2210485,33.7923034 32.9051965,34.622636 33.2759792,34.8535388 C33.4346682,34.9514049 33.56284,34.79696 33.56284,34.5125367 C33.56284,34.2265842 33.6452362,34.0751976 33.7459426,34.176122 C33.9214159,34.3519751 35.363349,33.0843034 35.363349,32.7540053 C35.363349,32.3870074 34.8689719,32.6270852 34.4630945,33.1913444 M21.2598707,34.8458931 C21.2598707,35.1134957 21.1255954,35.2480615 20.9608031,35.145608 C20.7960107,35.0431544 20.6602096,35.1027916 20.6602096,35.2786447 C20.6602096,35.7297462 21.1240696,35.6731674 21.5391021,35.1731328 C21.7786614,34.8825928 21.7908682,34.6868607 21.5757226,34.5538239 C21.4017752,34.4467829 21.2598707,34.5782905 21.2598707,34.8458931 M31.3762897,36.1976685 C31.289316,36.5294957 31.341195,36.8001566 31.4907288,36.8001566 C31.6402626,36.8001566 31.762331,36.5891329 31.762331,36.3307052 C31.762331,36.0539277 31.9042355,35.9499449 32.1087001,36.076865 C32.3238457,36.2099018 32.3741989,36.1594395 32.2414495,35.9438283 C31.9179682,35.4193272 31.551763,35.5263682 31.3762897,36.1976685 M19.9140665,36.5738413 C19.529551,37.7788176 19.508189,38.0081912 19.7919981,37.8323381 C19.9445836,37.7375303 19.9918851,37.5341523 19.8972821,37.3812366 C19.8026791,37.2267916 19.8515064,37.0998716 20.0071436,37.0998716 C20.1627809,37.0998716 20.361142,36.8292106 20.4465899,36.4989126 C20.6632613,35.6701091 20.1810911,35.737392 19.9140665,36.5738413 M18.5652106,38.4440012 C18.3470133,38.8507571 18.0540492,39.1137723 17.9151964,39.0266103 C17.7748177,38.9409775 17.6603786,39.1474137 17.6603786,39.4884159 C17.6603786,40.3554484 18.2096864,40.2621697 18.4355129,39.3584375 C18.5392711,38.9455649 18.7162703,38.6657291 18.8291835,38.7360703 C18.9436227,38.8064116 19.0550101,38.6015044 19.0794238,38.2819105 C19.1358804,37.5203899 19.0428033,37.5494439 18.5652106,38.4440012 M28.2131922,39.5358198 C27.7844269,40.2239408 28.2849073,40.3294527 28.9257665,39.6856773 C29.2629804,39.3477334 29.2690839,39.2345757 28.9578094,39.1137723 C28.7441897,39.0327269 28.4085016,39.2223425 28.2131922,39.5358198 M26.9238446,41.2010726 C26.5667945,41.5818329 26.1609171,41.8234398 26.0220643,41.7362778 C25.8816856,41.6506449 25.8496427,41.7897983 25.9472974,42.0466968 C26.1822791,42.659889 26.1593912,42.669064 27.4197475,41.5114916 C28.1216408,40.8677162 28.3444157,40.5083641 28.0422964,40.5083641 C27.7844269,40.5083641 27.2808947,40.8203123 26.9238446,41.2010726 M16.4595306,40.9135909 C16.4595306,40.9548782 16.7067192,41.1215564 17.0088385,41.2836471 C17.4192935,41.5038458 17.5596721,41.4732627 17.5596721,41.1659019 C17.5596721,40.9395866 17.3124836,40.7729084 17.0088385,40.7958458 C16.7067192,40.8187831 16.4595306,40.8707745 16.4595306,40.9135909 M15.371596,42.7195262 C15.4814575,42.9152584 15.2312173,43.4168221 14.8146589,43.8342822 C14.3996263,44.2502131 14.0593606,44.7930641 14.0593606,45.0377293 C14.0593606,45.2839237 13.9174561,45.5729345 13.7435086,45.6799756 C13.5329406,45.8114831 13.5573543,46.033211 13.8198014,46.3573924 C14.0334211,46.6219367 14.0593606,46.7488568 13.8777839,46.6402866 C13.3528897,46.3252801 11.6576648,48.5670253 11.6576648,49.5762694 C11.6576648,49.8270513 11.5233895,50.0319585 11.3585972,50.0319585 C11.1938048,50.0319585 11.0580037,50.3026194 11.0580037,50.6329174 C11.0580037,50.9632155 10.9237285,51.2338764 10.7574103,51.2338764 C10.5926179,51.2338764 10.4583427,51.5045373 10.4583427,51.8363646 C10.4583427,52.169721 10.2584557,52.4373236 10.0082154,52.4373236 C9.75797522,52.4373236 9.55808821,52.7049262 9.55808821,53.0382825 C9.55808821,53.3701098 9.42228711,53.6407707 9.25749476,53.6407707 C9.09270241,53.6407707 8.95842717,53.7829824 8.95842717,53.9588355 C8.95842717,54.1331595 9.12627122,54.1912675 9.33226166,54.0857556 C9.53977795,53.9802437 9.40397685,54.1637426 9.03319407,54.4925115 C8.66088543,54.8212805 8.35724028,55.3809522 8.35724028,55.7357168 C8.35724028,56.0920105 8.22296503,56.2984468 8.05817268,56.1959933 C7.88727692,56.0904814 7.75757924,56.3427924 7.75757924,56.7801315 C7.75757924,57.2037082 7.62177814,57.5492978 7.45698579,57.5492978 C7.29219344,57.5492978 7.19148701,57.657868 7.2326851,57.7909048 C7.34102081,58.1380236 6.48349026,60.255907 6.23477589,60.255907 C6.1188109,60.255907 6.03031131,60.4256435 6.03794059,60.6320798 C6.07608696,61.652028 5.93265659,62.3814363 5.72056273,62.2499287 C5.59086505,62.1688833 5.45506395,62.4594233 5.41844343,62.8952333 C5.38334877,63.3310432 5.21855642,63.8219028 5.05528993,63.9870519 C4.89049758,64.1506717 4.75622234,64.6644687 4.75622234,65.1278035 C4.75622234,65.5911383 4.62194709,65.9703694 4.45715475,65.9703694 C4.2923624,65.9703694 4.1565613,66.3679505 4.1565613,66.8542226 C4.1565613,67.3404948 4.02228605,67.8221795 3.85596785,67.924633 C3.69117551,68.0270866 3.55690026,68.4399592 3.55690026,68.8436568 C3.55690026,69.2473545 3.42109916,69.5776525 3.25630681,69.5776525 C3.09151447,69.5776525 2.95571337,70.1113286 2.95571337,70.7627498 C2.95571337,71.4157001 2.82143812,72.0319507 2.65664578,72.1344042 C2.49185343,72.2368578 2.35605233,72.8607542 2.35605233,73.5228795 C2.35605233,74.1850048 2.23398392,74.6498687 2.08445013,74.5565901 C1.81742549,74.3929702 1.60838335,75.767683 1.27269524,79.878059 C1.18114393,80.9943441 0.982782777,81.9072513 0.831723126,81.9072513 C0.67913762,81.9072513 0.55554336,82.9898949 0.55554336,84.3141455 C0.55554336,85.7622579 0.433474956,86.7195106 0.247320638,86.7195106 C-0.35539211,86.7195106 0.256475769,109.074267 0.877498778,109.708868 C1.03008428,109.866371 1.1552044,110.771633 1.1552044,111.721239 C1.1552044,112.670846 1.2910055,113.531762 1.45579784,113.634216 C1.62059019,113.73514 1.75639129,114.496661 1.75639129,115.322406 C1.75639129,116.249076 1.87083042,116.755227 2.05545888,116.64054 C2.22177708,116.538086 2.35605233,116.755227 2.35605233,117.128341 C2.35605233,117.769058 2.4689656,118.230864 3.2364707,120.74327 C3.42109916,121.347287 3.59046907,122.32289 3.61183104,122.911616 C3.63471887,123.501871 3.7659424,123.914743 3.90479521,123.827581 C4.04364802,123.741948 4.1565613,123.95603 4.1565613,124.303149 C4.1565613,124.650268 4.43121521,125.474484 4.76842918,126.13508 C5.10411729,126.795676 5.28569404,127.488385 5.17125491,127.673413 C5.05376407,127.866087 5.09801387,127.927253 5.27653891,127.817154 C5.67020952,127.574018 5.98148395,128.675011 5.6198563,129.037422 C5.46421908,129.193396 5.57865821,129.54816 5.89603607,129.889162 C6.8725833,130.941223 7.54548538,132.522372 6.92293652,132.306761 C6.48654197,132.153845 6.49417125,132.193603 6.97023803,132.563659 C7.30440028,132.823616 7.45851165,133.196731 7.34865008,133.482683 C7.24184023,133.76099 7.28914173,133.886381 7.4600375,133.77934 C7.72706214,133.614191 7.88727692,134.011772 7.7926739,134.608143 C7.77283779,134.733534 7.89185448,134.834459 8.05817268,134.834459 C8.22296503,134.834459 8.35724028,134.975141 8.35724028,135.147936 C8.35724028,135.319202 8.65783372,135.868169 9.02556479,136.365145 C9.56419163,137.094554 9.61454484,137.31934 9.28648601,137.522718 C8.97215986,137.716921 9.02556479,137.822433 9.51841597,137.979936 C10.1592751,138.183314 10.3561104,138.582424 9.93344855,138.819444 C9.80985429,138.889785 9.8434231,138.91731 10.0097413,138.882139 C10.1760595,138.846968 10.5697301,139.161975 10.8855821,139.582493 C11.2411063,140.053474 11.297563,140.253794 11.0351159,140.106994 C10.8001342,139.975487 11.0183315,140.256852 11.5203378,140.733949 C12.0208183,141.211046 12.4938333,141.735547 12.5701261,141.900696 C12.6464188,142.067375 12.7822199,142.177474 12.8707195,142.146891 C12.960745,142.117837 13.0477187,142.388498 13.066029,142.749379 C13.0828134,143.11026 13.0324602,143.235651 12.9531157,143.029215 C12.8737712,142.822779 12.6570998,142.653042 12.4739972,142.653042 C12.2298604,142.653042 12.2298604,142.744791 12.4785748,142.992515 C12.7730648,143.289172 14.8894258,143.351867 21.5452055,143.260118 C21.8839454,143.25553 21.9007298,143.174485 21.6199724,142.89312 C21.4231371,142.695858 21.2598707,142.27534 21.2598707,141.958804 C21.2598707,141.590277 21.1103369,141.443478 20.8402605,141.547461 C20.1795653,141.801301 20.0147729,141.40372 20.5900203,140.944973 C21.0752422,140.559625 21.0706646,140.536688 20.5106758,140.614675 C20.0422383,140.680429 19.9262733,140.544333 19.9842558,140.004541 C20.0285056,139.603901 19.9323767,139.38829 19.7599551,139.495331 C19.5951628,139.597785 19.4608875,139.470865 19.4608875,139.212437 C19.4608875,138.954009 19.3250864,138.742986 19.1602941,138.742986 C18.9955017,138.742986 18.8597006,138.472325 18.8597006,138.142027 C18.8597006,137.811729 18.7254254,137.541068 18.5606331,137.541068 C18.3943149,137.541068 18.2600396,137.33769 18.2600396,137.089966 C18.2600396,136.842243 18.0906697,136.637335 17.8846793,136.634277 C17.634439,136.631219 17.6603786,136.531824 17.9594462,136.337621 C18.2600396,136.143418 18.2844533,136.045551 18.0342131,136.042493 C17.8282226,136.039435 17.6603786,135.777949 17.6603786,135.461413 C17.6603786,135.143348 17.5169482,134.835988 17.3414749,134.77788 C17.1660015,134.719772 17.0103643,134.239616 16.9966316,133.710528 C16.9813731,133.182968 16.8684598,132.811383 16.7463914,132.887841 C16.624323,132.964299 16.4320652,132.661525 16.3206778,132.216541 C16.1589372,131.569707 16.0582308,131.494778 15.8232491,131.843426 C15.6142069,132.150787 15.5684313,131.94435 15.6645602,131.129309 C15.7545856,130.352497 15.6706636,129.931979 15.4021131,129.827996 C15.1839158,129.743892 14.929098,129.47629 14.8360209,129.231625 C14.739892,128.982372 14.7963486,128.869214 14.9626668,128.973197 C15.3792253,129.230095 15.3319237,128.85851 14.8833224,128.358476 C13.8457409,127.197845 13.7068881,126.919538 13.8350599,126.24518 C13.9144044,125.835365 13.7938618,125.364385 13.560406,125.170182 C13.3269502,124.977508 13.2247179,124.576869 13.3238985,124.258804 C13.444441,123.882631 13.3712,123.72054 13.1057012,123.77559 C12.8386766,123.83064 12.7227116,123.561508 12.750177,122.955961 C12.7730648,122.458985 12.6174276,121.952834 12.4053337,121.830501 C12.191714,121.706639 12.045232,121.208134 12.0788008,120.721862 C12.1123696,120.23559 11.9979304,119.862475 11.823983,119.893058 C11.6500355,119.923642 11.4638812,119.542881 11.4104762,119.045905 C11.3555455,118.550458 11.1877014,118.015253 11.0351159,117.859279 C10.8825304,117.701775 10.7574103,117.134458 10.7574103,116.597723 C10.7574103,116.062518 10.623135,115.539546 10.4583427,115.438622 C10.2935503,115.336168 10.1577492,114.591469 10.1577492,113.784073 C10.1577492,112.976678 10.023474,112.231978 9.8571558,112.129525 C9.69236345,112.027071 9.55808821,111.072877 9.55808821,110.007054 C9.55808821,108.916764 9.42686467,108.069611 9.25749476,108.069611 C9.08507314,108.069611 8.95842717,107.118475 8.95842717,105.815632 C8.95842717,104.511261 8.83025534,103.560125 8.65783372,103.560125 C8.46557598,103.560125 8.35724028,100.853516 8.35724028,96.0412562 C8.35724028,91.2305259 8.46557598,88.5239168 8.65783372,88.5239168 C8.83483291,88.5239168 8.95842717,87.421394 8.95842717,85.8173076 C8.95842717,84.2132211 9.08049557,83.1106984 9.25749476,83.1106984 C9.42686467,83.1106984 9.55808821,82.2589576 9.55808821,81.1564348 C9.55808821,80.0539121 9.68931174,79.2006421 9.8571558,79.2006421 C10.023474,79.2006421 10.1577492,78.5247544 10.1577492,77.6974801 C10.1577492,76.8702057 10.2935503,76.194318 10.4583427,76.194318 C10.623135,76.194318 10.7574103,75.6529962 10.7574103,74.9908709 C10.7574103,74.3302747 10.8855821,73.7889529 11.0396935,73.7889529 C11.1953307,73.7889529 11.3631747,73.2812725 11.4150538,72.6604345 C11.4669329,72.0411256 11.6485096,71.5563826 11.8194054,71.5869658 C11.9903012,71.6160198 12.1550935,71.3790003 12.1871365,71.0609355 C12.3137824,69.7718556 12.3687132,69.5776525 12.6052208,69.5776525 C12.7410219,69.5776525 12.8310473,69.3421622 12.8081595,69.0516223 C12.7166082,67.9659203 12.8630903,67.43989 13.1972525,67.6478555 C13.4047688,67.7763047 13.4795357,67.6952594 13.3895103,67.43989 C13.3071141,67.2105164 13.4368118,66.6340239 13.676371,66.159985 C13.9144044,65.6859461 14.0441021,65.0421707 13.9632318,64.7317517 C13.8808356,64.4198035 13.9067751,64.221013 14.0196884,64.2913543 C14.1326017,64.3616955 14.4545571,64.017635 14.7368403,63.5267754 C15.0175976,63.0343866 15.1274592,62.708676 14.9794512,62.7988963 C14.8329691,62.8906458 14.9886064,62.389082 15.3258203,61.6856695 C15.6630343,60.9822569 16.0734893,60.3201316 16.2367558,60.2146198 C16.4015481,60.1091079 16.4503755,59.8827925 16.3450915,59.713056 C16.2398075,59.5417904 16.3572983,59.1977299 16.6060127,58.9484772 C16.856253,58.6992245 17.0591917,58.2251856 17.0591917,57.8964166 C17.0591917,57.5676477 17.1965186,57.2526412 17.3628368,57.1975916 C17.529155,57.1425419 17.729042,56.7678982 17.8053348,56.3672589 C17.8831534,55.9666196 18.0494716,55.5613928 18.1776434,55.466585 C18.3058153,55.3717772 18.4538232,55.0904122 18.508754,54.8426887 C18.5636848,54.5949651 18.8001923,54.2830169 19.0336481,54.1515094 C19.2686298,54.0184726 19.4608875,53.6392415 19.4608875,53.3074143 C19.4608875,52.9740579 19.5951628,52.7859715 19.7599551,52.8884251 C19.9308509,52.993937 20.0605486,52.7416259 20.0605486,52.3042868 C20.0605486,51.8807101 20.1688843,51.5351205 20.3016337,51.5351205 C20.4343831,51.5351205 20.8723035,50.8607619 21.2766551,50.0365459 C21.6810066,49.2123299 22.1112978,48.534913 22.2364179,48.5318547 C22.3600121,48.5303256 22.4607186,48.3850556 22.4607186,48.2092024 C22.4607186,48.0348785 22.3050814,47.9874746 22.1143495,48.1052197 C21.9053073,48.2351981 21.8488507,48.1877942 21.9739708,47.9859454 C22.0868841,47.8024465 22.3783224,47.7275178 22.6209334,47.8207964 C22.9215268,47.9370124 23.0603796,47.7902132 23.0603796,47.3574616 C23.0603796,47.0088136 23.2129651,46.7228611 23.3975936,46.7228611 C23.6173167,46.7228611 23.5913772,46.5515955 23.3258784,46.2289432 C22.961199,45.7900749 22.9901903,45.7579626 23.5883255,45.9491073 C24.4550111,46.2243557 24.4382267,46.0255652 23.5150844,45.1019539 C22.582787,44.1661094 15.865973,43.7425327 15.8491886,44.6187401 C15.8430852,44.9643297 15.7683183,44.9429215 15.5257073,44.5269906 C15.2998808,44.1370554 15.3151393,43.8602779 15.582164,43.5376256 C15.8781799,43.1798027 15.8751281,43.0161828 15.5623279,42.7256428 C15.2724154,42.4580402 15.223588,42.4565111 15.371596,42.7195262 M25.2362489,43.2822562 C24.8013802,43.7562951 24.7418719,44.317496 25.1263874,44.317496 C25.3567915,44.317496 25.8435392,43.0880532 25.6741693,42.9336083 C25.6406005,42.901496 25.4422394,43.0589992 25.2362489,43.2822562 M23.6691958,44.4581785 C23.3426628,44.8527012 23.403697,44.9199842 24.0994869,44.9199842 C24.5923381,44.9199842 24.8654662,44.7793017 24.7922251,44.5621613 C24.6060708,44.0009604 24.0872801,43.9535565 23.6691958,44.4581785 M171.895334,48.5272672 C171.895334,50.8989909 171.97773,52.7553884 172.078436,52.654464 C172.284427,52.4480277 172.238651,44.5606321 172.029609,44.3526667 C171.956368,44.2777379 171.895334,46.1570728 171.895334,48.5272672 M137.398803,59.654948 C137.316406,70.8866115 136.977667,83.3966509 136.841865,80.2037696 C136.744211,77.9436744 136.847969,77.9987241 132.703747,77.9987241 L128.985238,77.9987241 L128.985238,109.074267 C128.985238,138.954009 129.146978,149.679522 129.586425,148.966934 C129.7207,148.748265 131.020728,148.651928 133.364442,148.687098 L136.937994,148.740619 L137.140933,141.261508 C137.380492,132.502493 137.800102,50.1466453 137.613948,48.3774098 C137.545285,47.7152845 137.44763,52.790559 137.398803,59.654948 M179.904547,48.7367619 C179.819099,48.8728569 179.945745,49.252088 180.182253,49.5777986 C180.604914,50.1573494 180.612544,50.1558202 180.513363,49.5074574 C180.395872,48.7306452 180.121218,48.3835264 179.904547,48.7367619 M181.49754,51.9831637 C181.49754,52.3822739 183.351454,55.7922956 183.491832,55.6516131 C183.57728,55.5659803 183.417065,55.146991 183.137834,54.7188269 C182.858602,54.2906627 182.721275,53.9404856 182.835715,53.9404856 C182.948628,53.9404856 182.828085,53.7264035 182.567164,53.4649175 C182.306243,53.2034316 182.147554,52.8991292 182.213166,52.7890298 C182.280303,52.6789305 182.146028,52.412857 181.91715,52.2003041 C181.686746,51.986222 181.49754,51.8883559 181.49754,51.9831637 M172.704037,53.5643128 C172.54077,53.8517945 173.480697,55.5353971 173.775187,55.4834057 C173.897256,55.4619975 173.962867,55.3427232 173.921669,55.2188615 C173.880471,55.0949997 173.74467,55.0277167 173.621076,55.069004 C173.410508,55.1393453 173.283862,54.5781444 173.315905,53.7156994 C173.331163,53.3058851 172.908502,53.2019024 172.704037,53.5643128 M74.8982535,54.7677599 C84.8422509,54.8121055 101.112443,54.8121055 111.056441,54.7677599 C121.000438,54.7234144 112.864579,54.6882437 92.9765843,54.6882437 C73.0901153,54.6882437 64.9542561,54.7234144 74.8982535,54.7677599 M183.752753,56.5721661 C183.87177,56.8611769 183.977054,57.3000451 183.984683,57.5462395 C183.999942,58.0233367 184.797964,58.9821186 184.797964,58.5233713 C184.797964,58.3735139 184.704887,58.1563735 184.590448,58.0416866 C184.384457,57.8367795 184.195251,57.1654792 184.131165,56.4223086 C184.112855,56.2143431 183.970951,56.0461358 183.816839,56.0461358 C183.661202,56.0461358 183.632211,56.2831552 183.752753,56.5721661 M174.409943,57.0584382 C174.52133,57.8184296 175.462783,58.9775312 175.481093,58.3765722 C175.488722,58.0875614 175.362076,57.8505419 175.195758,57.8505419 C175.030966,57.8505419 174.911949,57.7480883 174.931785,57.6242266 C175.015707,57.0890214 174.876855,56.6470948 174.622037,56.6470948 C174.472503,56.6470948 174.376374,56.8321229 174.409943,57.0584382 M175.57417,59.5907234 C175.597058,59.8858508 175.841195,60.1274578 176.117375,60.1274578 C176.526304,60.1274578 176.558347,60.0250042 176.286745,59.5907234 C176.102116,59.2940668 175.857979,59.0524599 175.74354,59.0524599 C175.627575,59.0524599 175.551282,59.2940668 175.57417,59.5907234 M184.733878,59.7589308 C184.64843,60.2054448 184.744559,60.4562267 184.999377,60.4562267 C185.443401,60.4562267 185.548685,59.4821532 185.133652,59.2252547 C184.98717,59.1335052 184.807119,59.373583 184.733878,59.7589308 M185.098558,61.0984729 C185.098558,61.2299805 185.258772,61.4991122 185.455608,61.6963736 C185.965243,62.2071123 186.070527,63.0955529 185.571573,62.6811512 C185.364056,62.5083563 185.097032,62.4624816 184.979541,62.5802268 C184.863576,62.6979719 184.84374,62.5955183 184.936817,62.3523823 C185.135178,61.8370561 178.801354,61.8661101 178.483976,62.3814363 C178.387847,62.5374103 178.053685,62.4517775 177.728678,62.1887624 C177.408248,61.9272764 177.34874,61.8187062 177.597454,61.9456263 C177.988073,62.145946 177.991125,62.107717 177.624919,61.6535572 C177.342636,61.3064384 177.101551,61.2330388 176.901664,61.4333585 C176.701777,61.6336781 176.726191,61.88446 176.974905,62.1841749 C177.180896,62.4318985 177.267869,62.766784 177.167163,62.9288747 C177.067982,63.0894363 177.133594,63.3126933 177.312119,63.4227927 C177.49217,63.5344212 177.562359,63.8203737 177.470808,64.0604514 C177.376205,64.3066458 177.434188,64.4167452 177.603558,64.3112333 C177.952978,64.0956221 178.483976,65.3449439 178.274934,65.8939116 C178.197115,66.101877 178.282563,66.2700844 178.465666,66.2700844 C178.647242,66.2700844 178.796776,66.6768403 178.796776,67.1722874 C178.796776,67.6692637 178.932577,68.0744905 179.09737,68.0744905 C179.262162,68.0744905 179.397963,68.4047885 179.397963,68.8084862 C179.397963,69.2121838 179.532238,69.6265856 179.697031,69.7290391 C179.861823,69.8314927 179.997624,70.3804603 179.997624,70.949307 C179.997624,71.5181537 180.131899,71.9845468 180.298218,71.9845468 C180.46301,71.9845468 180.597285,72.3974194 180.597285,72.9035706 C180.597285,73.5595792 180.705621,73.7583697 180.972645,73.5978082 C181.227463,73.4448924 181.215256,73.5351127 180.936025,73.8807024 C180.667474,74.2125296 180.641535,74.3899119 180.861258,74.3899119 C181.045887,74.3899119 181.198472,74.8547758 181.198472,75.4251517 C181.198472,75.9939983 181.332747,76.542966 181.49754,76.6454195 C181.662332,76.7478731 181.798133,77.3564779 181.798133,77.9987241 C181.798133,78.6409704 181.932408,79.2495751 182.098727,79.3520287 C182.263519,79.4544823 182.397794,80.3413938 182.397794,81.3246422 C182.397794,82.3140072 182.532069,83.1106984 182.698388,83.1106984 C182.875387,83.1106984 182.997455,84.1627589 182.997455,85.6674501 C182.997455,87.2241327 183.119524,88.2226727 183.30873,88.2226727 C183.516246,88.2226727 183.572703,90.7014374 183.476574,95.81647 C183.322462,104.09533 183.078325,108.069611 182.721275,108.069611 C182.596155,108.069611 182.463406,108.984047 182.428311,110.100332 C182.393217,111.216617 182.236053,112.257974 182.080416,112.415477 C181.924779,112.57298 181.798133,113.215227 181.798133,113.84371 C181.798133,114.472194 181.662332,114.98752 181.49754,114.98752 C181.332747,114.98752 181.198472,115.596125 181.198472,116.340825 C181.198472,117.083996 181.056568,117.6926 180.884146,117.6926 C180.711724,117.6926 180.592708,117.862337 180.620173,118.068773 C180.748345,119.064255 180.568294,120.116315 180.298218,119.948108 C180.119693,119.838009 179.997624,120.189715 179.997624,120.81514 C179.997624,121.394691 179.880133,121.940601 179.736703,122.029292 C179.593273,122.117983 179.39186,122.700592 179.289627,123.324488 C179.187395,123.948385 178.899008,124.847529 178.650294,125.321568 C178.40158,125.794078 178.197115,126.3721 178.197115,126.603002 C178.197115,126.833905 178.071995,127.259011 177.91941,127.546493 C177.765298,127.832445 177.556256,128.335538 177.452498,128.661249 C177.293809,129.162813 177.217516,129.18575 176.961173,128.811106 C176.738398,128.488454 176.717036,128.571028 176.880302,129.119996 C177.243456,130.337206 177.26024,131.513128 176.919974,131.724152 C176.721613,131.846484 176.694148,131.773085 176.846733,131.52689 C177.006948,131.265404 176.971854,131.205767 176.742975,131.347979 C176.552243,131.465724 176.392029,131.791435 176.387451,132.069741 C176.378296,132.514726 176.321839,132.505551 175.937324,131.994813 C175.503981,131.421378 175.496352,131.421378 175.496352,132.033042 C175.496352,132.803737 176.247072,133.514795 176.547666,133.030052 C176.825371,132.577422 183.891606,132.673759 184.498897,133.137093 C184.875783,133.424575 184.891041,133.406225 184.588922,133.017819 C184.308165,132.655409 184.321897,132.395452 184.653008,131.815901 C184.884938,131.407616 185.173324,130.872411 185.293867,130.624687 C185.412884,130.375435 185.7089,130.025257 185.949985,129.843288 C186.255156,129.613914 186.287199,129.450294 186.056795,129.306553 C185.82639,129.164342 185.882847,128.91356 186.23532,128.499158 C186.517603,128.16886 186.755636,127.801862 186.763265,127.682588 C186.822774,126.719218 187.28053,125.211469 187.51246,125.211469 C187.671149,125.211469 187.799321,124.804713 187.799321,124.309266 C187.799321,123.81229 187.933596,123.407063 188.099914,123.407063 C188.264707,123.407063 188.398982,122.925378 188.398982,122.336652 C188.398982,121.747927 188.510369,121.335054 188.644645,121.417629 C188.77892,121.501732 188.920824,120.934415 188.960497,120.157603 C189.000169,119.380791 189.158858,118.700315 189.316021,118.645266 C189.471658,118.590216 189.59983,118.11006 189.59983,117.577914 C189.59983,117.045767 189.720373,116.481507 189.86838,116.325533 C190.158293,116.018173 190.434473,114.40644 190.690816,111.528566 C190.77779,110.536142 190.974625,109.59571 191.125685,109.438207 C191.276745,109.280704 191.400339,108.029853 191.400339,106.656669 C191.400339,105.193265 191.523933,104.161084 191.700932,104.161084 C191.89319,104.161084 192,101.15323 192,95.7415412 C192,91.1097225 191.884035,87.3204696 191.74213,87.3204696 C191.600226,87.3204696 191.458321,86.2041845 191.426278,84.8401758 C191.39271,83.4746379 191.240124,82.2299036 191.082961,82.0724003 C190.927324,81.9164262 190.800678,80.8750698 190.800678,79.7603138 C190.800678,78.6455578 190.664877,77.6500762 190.500084,77.5476226 C190.335292,77.445169 190.199491,76.6928234 190.199491,75.8762532 C190.199491,75.0581538 190.065216,74.3899119 189.900423,74.3899119 C189.734105,74.3899119 189.59983,73.8485901 189.59983,73.1864648 C189.59983,72.5258686 189.464029,71.9845468 189.299237,71.9845468 C189.134444,71.9845468 189.000169,71.43405 189.000169,70.7627498 C189.000169,70.0256957 188.881152,69.6158815 188.699576,69.7290391 C188.424922,69.8987756 188.257078,69.0745596 188.37762,68.1494192 C188.40356,67.9429829 188.284543,67.7732464 188.112121,67.7732464 C187.9397,67.7732464 187.799321,67.3680196 187.799321,66.8710433 C187.799321,66.3755962 187.66352,65.9703694 187.498728,65.9703694 C187.333935,65.9703694 187.19966,65.5070347 187.19966,64.9427755 C187.19966,64.3769871 187.065385,63.8693067 186.902118,63.814257 C186.737326,63.7592074 186.574059,63.3417473 186.535913,62.8875875 C186.499293,62.4318985 186.361966,62.0603131 186.233794,62.0603131 C186.104096,62.0603131 185.998812,61.7896522 185.998812,61.4593541 C185.998812,61.1244686 185.798925,60.856866 185.548685,60.856866 C185.301496,60.856866 185.098558,60.9654362 185.098558,61.0984729 M24.55114,62.2896868 C24.4107613,65.3388273 24.6899928,143.191306 24.8471559,144.758692 L25.0729824,147.0142 L25.1172322,145.133336 L25.161482,143.254001 L28.4619065,143.254001 L31.762331,143.254001 L31.8126842,141.526053 L31.8645633,139.796575 L32.0629245,141.600981 L32.2628115,143.405388 L32.3177423,141.14988 C32.3558886,139.567202 32.4596468,139.028938 32.6625855,139.345474 C32.8517915,139.637543 32.9555497,127.678 32.9586014,105.288073 L32.963179,70.7810997 L66.5213093,70.7810997 L100.07944,70.7810997 L100.279327,96.0917184 C100.389188,110.011641 100.479214,125.511184 100.479214,130.532938 C100.479214,138.37293 100.543299,139.689534 100.929341,139.837863 C101.252822,139.961724 101.379468,140.467876 101.379468,141.633094 L101.379468,143.254001 L104.492212,143.254001 L107.606483,143.254001 L107.896395,139.721647 L108.187833,136.187763 L108.233609,139.721647 C108.2626,141.860938 108.399927,143.254001 108.58303,143.254001 C108.784443,143.254001 108.883623,129.714838 108.879046,102.66098 L108.872942,62.0664298 L66.7166187,62.0664298 C43.5312511,62.0664298 24.5572434,62.1673542 24.55114,62.2896868" id="path1" fill="#6862E2"></path>
                <path d="M86.1971008,0.130856869 C86.1104515,0.222616527 85.0630585,0.326610806 83.8697298,0.361785342 C82.6764011,0.396959877 81.6290081,0.540716675 81.5423587,0.679885489 C81.4557094,0.820583632 80.5861756,0.935283204 79.6102303,0.935283204 C78.6251641,0.935283204 77.8331587,1.06986404 77.8331587,1.23656075 C77.8331587,1.40172813 77.2387746,1.53630896 76.5136563,1.53630896 C75.787018,1.53630896 75.1485491,1.66936047 75.0938232,1.8314692 C75.0390973,1.99357793 74.4173502,2.17862657 73.7135143,2.24285833 C73.0096784,2.30556076 72.3484071,2.44320025 72.2435158,2.54872386 C72.1386245,2.65424746 71.6992971,2.73988981 71.2660503,2.73988981 C70.8343238,2.73988981 70.3509116,2.866824 70.1958549,3.02281542 C70.039278,3.17727751 69.5300231,3.37456078 69.0633327,3.4586738 C68.5966424,3.54278682 68.0417826,3.75689269 67.8304798,3.93276536 C67.619177,4.10863804 67.2269747,4.16981115 66.9594258,4.06581687 C66.691877,3.96335192 66.4729733,4.01076107 66.4729733,4.1728698 C66.4729733,4.33497853 65.9348353,4.55367238 65.2781245,4.65919599 C64.6198935,4.76624892 64.0817554,4.97882547 64.0817554,5.13175823 C64.0817554,5.28622032 63.8142066,5.35962805 63.4873713,5.29692561 C63.1605361,5.23422318 62.7181684,5.34280544 62.5038252,5.54008871 C61.8957596,6.09982262 60.8438062,6.64885124 60.378636,6.64885124 C60.1475711,6.64885124 59.1898678,7.05565239 58.2519266,7.55115454 C57.3139854,8.04818602 56.2924353,8.45345785 55.9792815,8.45345785 C55.6676479,8.45345785 55.4122603,8.58956801 55.4122603,8.75473539 C55.4122603,8.91990277 55.1431913,9.05601293 54.8148359,9.05601293 C54.4849603,9.05601293 54.2158913,9.19059377 54.2158913,9.35576115 C54.2158913,9.52245786 53.9468223,9.65703869 53.6184668,9.65703869 C53.2901114,9.65703869 53.0210424,9.79314885 53.0210424,9.95831624 C53.0210424,10.1234836 52.7519734,10.2580645 52.4220978,10.2580645 C52.0937424,10.2580645 51.8246734,10.3941746 51.8246734,10.559342 C51.8246734,10.7245094 51.5556043,10.8606195 51.2272489,10.8606195 C50.8973733,10.8606195 50.6298245,10.9952004 50.6298245,11.1603678 C50.6298245,11.3255351 50.4382838,11.4616453 50.2056987,11.4616453 C49.9731137,11.4616453 49.7374882,11.5625809 49.6827623,11.6864565 C49.6280364,11.8118613 48.910519,12.2507784 48.0881103,12.6636968 C47.2657016,13.0781446 46.3551234,13.6317612 46.0647721,13.8948056 C45.7744208,14.1578499 45.1693955,14.5600631 44.719427,14.7894622 C44.2709786,15.0188614 43.5215378,15.5143635 43.0548474,15.8921075 C42.5896773,16.2698514 42.0819425,16.4992505 41.9268858,16.4029029 C41.7718291,16.3080846 41.6821394,16.4074909 41.7277443,16.627714 C41.7733492,16.8464079 41.6456554,16.9932233 41.4449938,16.9534608 C41.2443322,16.9136983 40.9357389,17.1538028 40.7578797,17.4887255 C40.5800205,17.8221189 40.306391,18.0148142 40.1513343,17.9184666 C39.9947574,17.8205896 39.8670636,17.892468 39.8670636,18.0775166 C39.8670636,18.2625653 39.7469707,18.3390317 39.5995147,18.247272 C39.4520588,18.1570417 39.2544375,18.2855052 39.1586672,18.5347856 C39.0628969,18.7855953 38.637251,19.1220474 38.211605,19.2856855 C37.7874793,19.4477942 37.5244909,19.7200145 37.6293822,19.8897699 C37.7327534,20.0595253 37.7084308,20.1635195 37.571616,20.1206984 C37.2964663,20.035056 36.2110693,20.8853622 35.2868096,21.9130703 C34.9508533,22.284697 34.5039251,22.5890332 34.2926223,22.5890332 C34.0813195,22.5890332 33.7651254,22.8597241 33.5887864,23.1915882 C33.4124474,23.521923 33.15858,23.792614 33.0248056,23.792614 C32.6280428,23.792614 28.207406,28.2414281 28.207406,28.6405826 C28.207406,28.8409245 28.1222768,28.9204496 28.0189057,28.814926 C27.8258448,28.6222307 26.7070041,29.7371105 25.7082564,31.1196227 C25.4011833,31.5432464 25.0652271,31.8613466 24.9603358,31.8261721 C24.8554444,31.7909975 24.7444725,31.8766399 24.7155894,32.0158087 C24.6851861,32.1549775 24.4282784,32.4379031 24.1455279,32.6458917 C23.8612572,32.8569389 23.7290029,33.1811563 23.8490959,33.3784396 C23.9691888,33.5726642 23.9555074,33.6950104 23.8202128,33.6491306 C23.6849182,33.6047801 23.572426,33.6338373 23.5709059,33.7179503 C23.5693857,33.800534 22.9978041,34.4596742 22.301569,35.1815169 C21.6038137,35.9048889 21.0322321,36.6099089 21.0322321,36.7475484 C21.0322321,36.8851879 20.688675,37.3439862 20.2691098,37.7660806 C19.8495445,38.1897043 19.3646122,38.9406042 19.1928337,39.434577 C19.0225753,39.9285499 18.713982,40.3338217 18.5087599,40.3338217 C17.8672507,40.3338217 17.1147695,41.404351 17.341274,41.9962008 C17.508492,42.4351178 17.4431249,42.5024083 17.0068379,42.3341822 C16.544708,42.1552509 16.5203854,42.1934841 16.8472207,42.5895799 C17.1679753,42.9780292 17.1558139,43.0254383 16.7712125,42.8770935 C16.5173451,42.7792166 16.2087518,42.8648589 16.0840984,43.0667302 C15.9396828,43.3022466 15.9822474,43.3573024 16.2041913,43.2196629 C16.6435187,42.9459133 16.6541598,43.4154169 16.2193929,43.8543339 C15.9822474,44.0913797 15.979207,44.3437187 16.210272,44.7413439 C16.4504579,45.1588504 16.5325467,45.1848489 16.5386274,44.8453382 C16.553829,44.0822037 23.4021677,44.3773639 23.9494267,45.1649677 C24.3826734,45.787404 24.9192913,45.9433954 24.9192913,45.446364 C24.9192913,45.2811966 24.7003877,45.1466157 24.434359,45.1466157 C24.0299954,45.1466157 24.0132736,45.0670907 24.332508,44.6817001 C24.5438108,44.4247731 24.8964889,44.2856043 25.1169126,44.3712466 C25.3373364,44.4553597 25.5167158,44.3850106 25.5167158,44.2121966 C25.5167158,43.742693 26.3102414,43.0392023 26.5686692,43.280836 C26.6933227,43.3970649 26.7282864,43.1233153 26.6477178,42.673693 C26.5671491,42.2240706 26.6005927,41.9182051 26.7222058,41.9931422 C26.8438189,42.0696085 27.1098476,41.9319691 27.3105092,41.6872766 C27.5126911,41.4425842 27.818244,41.329414 27.9885024,41.4364669 C28.170922,41.5496371 28.2104463,41.4838761 28.0857929,41.2804755 C27.9565789,41.0694283 28.1465994,40.8186185 28.5616042,40.6503925 C28.9431653,40.4974597 29.0845406,40.3628789 28.8777983,40.3521736 C28.5813663,40.3384097 28.578326,40.2114755 28.8625967,39.7511479 C29.0617381,39.4315184 29.3064845,39.2204712 29.4052952,39.2831736 C29.505626,39.3443467 29.8324613,39.0675384 30.1304134,38.6668546 C30.4298857,38.2661707 30.7916847,38.0123023 30.9361003,38.1010033 C31.0789957,38.1912337 31.1975685,38.0000677 31.1975685,37.6773796 C31.1975685,37.3546915 31.3997503,37.0121221 31.6460169,36.9173037 C31.8922834,36.8209561 32.0944652,36.5365012 32.0944652,36.2826328 C32.0944652,36.0195884 32.3559334,35.8223052 32.7070913,35.8223052 C33.1205759,35.8223052 33.4230886,35.5271449 33.6343913,34.9200019 C33.8061699,34.4244997 34.1056422,34.0176986 34.3002232,34.0176986 C34.493284,34.0176986 34.845962,33.7470076 35.0831076,33.4166728 C35.3202532,33.086338 35.6942135,32.815647 35.9146373,32.815647 C36.1350611,32.815647 36.2308314,32.6795369 36.1305006,32.5143695 C36.0286496,32.3492021 36.162424,32.213092 36.4284527,32.213092 C36.6944814,32.213092 36.829776,32.0785111 36.727925,31.9133437 C36.5622271,31.6426527 36.718804,31.5753623 37.3998375,31.6304181 C37.5244909,31.6395941 37.6977896,31.3352579 37.7874793,30.952926 C37.877169,30.5705941 38.146238,30.2586112 38.3849037,30.2586112 C38.8667957,30.2586112 39.5675913,29.6897014 39.5675913,29.2997228 C39.5675913,28.9846813 40.8293274,28.1511978 41.159203,28.2475454 C41.2944976,28.2873079 41.335542,28.2047242 41.2504128,28.0640261 C41.0451907,27.7306327 42.1336281,26.7992721 42.7280122,26.7992721 C42.9818796,26.7992721 43.115654,26.6784552 43.0244442,26.5301105 C42.8876294,26.308358 43.3147955,26.0116684 44.052075,25.8205024 C44.2481762,25.7685053 44.608455,25.482521 45.6968924,24.515986 C46.1894255,24.0770689 46.963189,23.5861548 47.4146777,23.4255754 C47.8676866,23.2634666 48.2370864,22.9683064 48.2370864,22.7694938 C48.2370864,22.5706812 48.9074787,22.0751791 49.7268471,21.6714366 C50.5477356,21.2661648 51.2196481,20.833365 51.2226884,20.7094895 C51.2242086,20.585614 51.4385517,20.4846783 51.6969796,20.4846783 C51.9554075,20.4846783 52.3688921,20.2797484 52.618199,20.030468 C52.8659857,19.7811876 53.2141032,19.6664881 53.3904423,19.7765996 C53.5804627,19.8943579 53.6245475,19.8347141 53.4983739,19.6282549 C53.3706801,19.423325 53.4740513,19.2810975 53.7507211,19.2810975 C54.0061087,19.2810975 54.2158913,19.1465167 54.2158913,18.9798199 C54.2158913,18.8146526 54.4849603,18.6800717 54.8148359,18.6800717 C55.1431913,18.6800717 55.4122603,18.5439616 55.4122603,18.3787942 C55.4122603,18.2136268 55.6813293,18.0775166 56.0096848,18.0775166 C56.3395603,18.0775166 56.6086294,17.9429358 56.6086294,17.7777684 C56.6086294,17.612601 56.8776984,17.4764909 57.2060538,17.4764909 C57.5344092,17.4764909 57.8034782,17.34191 57.8034782,17.1752133 C57.8034782,17.010046 58.0071802,16.8754651 58.2564871,16.8754651 C58.505794,16.8754651 59.0089683,16.7179444 59.376848,16.5267784 C59.7447276,16.3356125 60.2813455,16.0649215 60.5686565,15.9257527 C60.8574877,15.7865838 61.3272183,15.5525967 61.6160495,15.4057813 C61.9033605,15.2604951 62.5083857,14.9898041 62.9613946,14.8047555 C63.4128833,14.6197069 64.0863159,14.3428986 64.4557158,14.1884365 C64.8251156,14.0339744 65.6657663,13.7464608 66.3239973,13.5491775 C66.9822283,13.3534236 67.7529514,13.0735566 68.0387422,12.9282705 C68.3245331,12.7829844 68.8018645,12.6652261 69.0998167,12.6652261 C69.3977688,12.6652261 69.770209,12.5413506 69.9267859,12.3899472 C70.0818426,12.2385437 70.5470128,12.0703177 70.957457,12.0137326 C71.3694215,11.9586768 71.7874666,11.7980974 71.8893176,11.6589286 C71.9911685,11.5182304 72.5551494,11.3912962 73.1419327,11.3744736 C73.728716,11.357651 74.1422006,11.2353048 74.0601117,11.1022533 C73.9780228,10.9692018 74.2896565,10.8376796 74.7517863,10.8086224 C75.9679175,10.7336853 76.4315675,10.6663949 76.9362619,10.4859343 C77.8878846,10.1494822 80.6135386,9.65703869 81.5332378,9.65703869 C82.063775,9.65703869 82.6535986,9.49951795 82.8451393,9.30682267 C83.0366799,9.11412738 84.0399881,8.9321374 85.0721795,8.90155084 C86.105891,8.87096429 87.4892402,8.69662094 88.1474712,8.51463095 C89.5840261,8.11547644 104.677734,8.16747358 105.304042,8.5727454 C105.533586,8.72109018 106.58402,8.88778689 107.640534,8.94284269 C108.695528,8.99789848 109.717078,9.14012595 109.907098,9.25941351 C110.098639,9.37870106 110.796394,9.52092853 111.459186,9.57751366 C112.120457,9.63256945 112.863817,9.76562096 113.110084,9.87420322 C113.607177,10.0928971 113.991779,10.1479529 115.443535,10.213714 C115.987754,10.2381832 116.355634,10.3849986 116.259863,10.5409901 C116.162573,10.7000401 116.621662,10.8147397 117.313337,10.8055637 C117.98829,10.7963878 118.689085,10.9401446 118.874545,11.1251932 C119.058485,11.3102419 119.584462,11.4616453 120.045072,11.4616453 C120.505681,11.4616453 120.882682,11.5671689 120.882682,11.6971618 C120.882682,11.8256253 121.246001,11.9617354 121.691409,11.9999686 C122.136817,12.0366725 122.633911,12.2018399 122.798089,12.3654779 C122.960746,12.5306453 123.404634,12.6652261 123.781635,12.6652261 C124.160156,12.6652261 124.470269,12.799807 124.470269,12.9649744 C124.470269,13.1301417 124.84727,13.2662519 125.307879,13.2662519 C126.215417,13.2662519 127.752303,13.8795123 127.755343,14.2434923 C127.756863,14.3673678 128.068497,14.4698328 128.445498,14.4698328 C129.252705,14.4698328 130.742466,15.1136797 130.745506,15.4638957 C130.747026,15.5984765 130.871679,15.6305924 131.022176,15.5373034 C131.174192,15.4424851 131.501027,15.5694193 131.748814,15.8202291 C131.996601,16.0695095 132.45113,16.27291 132.759723,16.27291 C133.445317,16.27291 134.927477,16.9412262 134.930517,17.2516797 C134.932037,17.3755553 135.202627,17.4764909 135.530982,17.4764909 C135.859337,17.4764909 136.128406,17.612601 136.128406,17.7777684 C136.128406,17.9429358 136.397475,18.0775166 136.727351,18.0775166 C137.055706,18.0775166 137.324775,18.2136268 137.324775,18.3787942 C137.324775,18.5439616 137.627288,18.6816011 137.996688,18.6846597 C138.540907,18.6877184 138.583471,18.7443035 138.221672,18.9798199 C137.858353,19.2168657 137.902438,19.2734508 138.445136,19.2765095 C138.816056,19.2795682 139.118569,19.4172076 139.118569,19.582375 C139.118569,19.7475424 139.454525,19.8821232 139.86649,19.8821232 C140.276934,19.8821232 140.61289,20.0182334 140.61289,20.1834008 C140.61289,20.3485682 140.821153,20.4846783 141.0735,20.4846783 C141.327367,20.4846783 141.81382,20.744664 142.154336,21.0642935 C142.494853,21.383923 143.140923,21.8243693 143.587851,22.0415339 C144.036299,22.2602277 144.425461,22.5400947 144.451304,22.6639702 C144.477147,22.7893751 144.60028,22.9147799 144.723414,22.9438372 C144.846547,22.9728944 145.111055,23.162531 145.311717,23.3628729 C145.982109,24.0373064 158.549305,23.9593107 158.555385,23.2802892 C158.558426,22.821491 158.602511,22.807727 158.848777,23.1915882 C159.052479,23.5066297 159.140649,23.526511 159.143689,23.2573493 C159.146729,23.0447728 158.912624,22.7832578 158.625313,22.6777342 C158.338002,22.5706812 157.553597,21.8977771 156.884725,21.1820517 C156.215853,20.4678557 155.571304,19.8821232 155.451211,19.8821232 C155.332638,19.8821232 154.908512,19.5548471 154.510229,19.1541633 C154.111946,18.7534795 153.513002,18.3390317 153.178566,18.2319787 C152.844129,18.1249258 152.5705,17.9031733 152.5705,17.7395352 C152.5705,17.5758972 152.450407,17.5162534 152.302951,17.6080131 C152.157015,17.6997727 151.959394,17.5713092 151.865144,17.3250874 C151.770894,17.0773364 151.556551,16.8754651 151.387812,16.8754651 C151.118743,16.8754651 150.645972,16.5420717 149.466325,15.5220102 C149.274784,15.3568428 148.920586,15.1763821 148.67736,15.1228557 C148.435654,15.0693292 147.958322,14.764993 147.619326,14.4468928 C147.280329,14.1287927 146.842522,13.8672777 146.647941,13.8672777 C146.45336,13.8672777 146.293743,13.766342 146.293743,13.6409372 C146.293743,13.4436539 144.980321,12.7095766 142.780644,11.6757512 C142.411244,11.5014078 142.107211,11.2475394 142.107211,11.1098999 C142.107211,10.9722605 141.932392,10.8606195 141.71957,10.8606195 C141.16927,10.8606195 139.722074,10.1525408 139.719034,9.88337918 C139.717514,9.75797432 139.446924,9.65703869 139.118569,9.65703869 C138.790214,9.65703869 138.521145,9.52245786 138.521145,9.35576115 C138.521145,9.19059377 138.252076,9.05601293 137.9222,9.05601293 C137.593845,9.05601293 137.324775,8.91990277 137.324775,8.75473539 C137.324775,8.58956801 136.988819,8.45345785 136.576855,8.45345785 C136.166411,8.45345785 135.830454,8.33569962 135.830454,8.19041349 C135.830454,8.0466567 135.442813,7.84937343 134.968521,7.75455512 C134.49575,7.65973681 133.899846,7.37222321 133.645979,7.11529617 C133.390591,6.85989845 132.835731,6.64885124 132.413126,6.64885124 C131.99052,6.64885124 131.645443,6.51427041 131.645443,6.34910302 C131.645443,6.18393564 131.241079,6.04782548 130.748546,6.04782548 C130.23017,6.04782548 129.850129,5.88877541 129.850129,5.67161088 C129.850129,5.29386696 125.488779,3.78136193 123.007871,3.2980944 C122.287314,3.15739625 121.291606,2.83929611 120.796033,2.5900157 C120.298939,2.34226463 119.3838,2.13886405 118.762053,2.13886405 C118.138786,2.13886405 117.545922,2.00275389 117.444071,1.83758651 C117.34222,1.67241912 116.804082,1.53630896 116.249222,1.53630896 C115.692842,1.53630896 115.154704,1.40172813 115.052853,1.23656075 C114.951002,1.06986404 114.163557,0.935283204 113.301624,0.935283204 C112.439691,0.935283204 111.574718,0.774703803 111.380137,0.578949866 C111.015298,0.211911234 86.5300167,-0.222417814 86.1971008,0.130856869 M85.5890352,30.2586112 C85.4126962,33.44573 85.6407208,38.379341 85.9660359,38.4053395 C86.1788588,38.4236915 102.310839,38.458866 121.813022,38.4833352 L157.273887,38.5292151 L157.501912,48.830766 C157.710174,58.2208377 158.091735,66.5464973 158.205748,64.1928621 C158.296958,62.3041425 158.325841,62.2888492 161.721887,62.2888492 L164.827582,62.2888492 L164.870147,63.7172412 L164.912711,65.1456332 L165.127054,63.9435817 C165.245627,63.2813828 165.391563,62.8745817 165.45389,63.0412784 C165.578543,63.3762011 165.92058,30.7342321 165.795926,30.2586112 C165.744241,30.0597986 152.114451,29.9573337 125.662078,29.9573337 C99.1686599,29.9573337 85.6011965,30.0597986 85.5890352,30.2586112 M172.147171,38.8381393 C171.935869,39.182238 172.300708,52.144819 172.562176,53.6328548 C172.583459,53.7521423 172.788681,53.7766116 173.019746,53.6879106 C173.250811,53.5976802 173.43019,53.7032038 173.421069,53.9218977 C173.383065,54.7829092 173.509238,55.370171 173.722061,55.3365258 C174.298203,55.2447661 174.438059,55.4068748 174.117304,55.795324 C173.843674,56.1287175 173.887759,56.3061195 174.324046,56.6226903 C175.030923,57.1350151 175.628347,58.0786102 174.960995,57.6274586 C174.716249,57.4622912 174.757293,57.5509922 175.053725,57.8262711 C175.348637,58.1000208 175.590343,58.5404671 175.590343,58.8035115 C175.590343,59.0665559 175.692194,59.2806617 175.816847,59.2806617 C175.943021,59.2806617 176.221211,59.566646 176.437074,59.9138034 C176.652937,60.2624901 176.686381,60.4567147 176.510042,60.3481324 C176.332183,60.2380208 176.187767,60.2915473 176.187767,60.4658906 C176.187767,60.6417633 176.323062,60.7855201 176.48724,60.7855201 C176.651417,60.7855201 176.786712,60.9965673 176.786712,61.2534944 C176.786712,61.5119507 176.905285,61.6480609 177.05122,61.5578306 C177.197156,61.4676002 177.499669,61.620533 177.724653,61.8988706 C178.074291,62.3331997 178.06821,62.3714329 177.683609,62.1741496 C177.435822,62.0472154 177.495108,62.1557977 177.814343,62.4173127 C178.138138,62.6803571 178.471054,62.7659994 178.566824,62.610008 C178.883018,62.0946246 185.193219,62.0655673 184.995597,62.5809508 C184.902867,62.8241138 184.922629,62.9265788 185.038162,62.8088206 C185.155215,62.6910623 185.421243,62.7369422 185.627986,62.9097562 C186.125079,63.324204 186.020188,62.4356646 185.512453,61.9248692 C185.007759,61.4171324 185.071606,61.0898563 185.679671,61.0653871 C186.123559,61.0470351 186.112918,61.0072726 185.605183,60.8008134 C185.276828,60.6677619 184.940871,60.5974128 184.857262,60.6432926 C184.775174,60.6907018 184.725008,60.0728534 184.74629,59.2699564 C184.773653,58.2346016 184.656601,57.7635687 184.341927,57.6427518 C184.066777,57.5356989 183.974047,57.2772425 184.09566,56.957613 C184.203592,56.6746874 184.199031,56.5355186 184.085019,56.6502182 C183.788587,56.9484371 182.707751,54.8073784 182.952497,54.4082239 C183.068029,54.2185873 183.020904,54.1604728 182.843045,54.2705844 C182.466044,54.5045715 182.082963,53.6466187 182.362673,53.1924084 C182.478206,53.0027718 182.417399,52.9614799 182.210657,53.0899435 C181.984153,53.2306416 181.797172,52.9828905 181.6786,52.3833941 C181.576749,51.8771867 181.379127,51.4612095 181.236232,51.4612095 C181.094857,51.4612095 181.011248,51.1568733 181.049252,50.7852467 C181.096377,50.3448004 180.977804,50.1383411 180.710255,50.1964556 C180.444226,50.2530407 180.365178,50.1154012 180.483751,49.8049477 C180.594723,49.5097875 180.544557,49.4012052 180.349976,49.5220221 C180.176678,49.629075 179.960814,49.4333211 179.869604,49.0861637 C179.779915,48.7390064 179.620298,48.4545514 179.515406,48.4545514 C179.410515,48.4545514 179.135365,48.0141051 178.9043,47.4773111 C178.674756,46.9389877 178.238468,46.1406787 177.934436,45.7002323 C177.631923,45.2613153 177.384136,44.6862881 177.384136,44.4232438 C177.384136,44.1586701 177.250362,43.9430349 177.084664,43.9430349 C176.920486,43.9430349 176.786712,43.7044598 176.786712,43.4138875 C176.786712,43.1233153 176.517643,42.7149848 176.187767,42.5085256 C175.859412,42.3020663 175.590343,41.9854955 175.590343,41.8035055 C175.590343,41.5190506 175.255907,41.0357831 173.810231,39.2388231 C173.658214,39.0491865 173.586767,38.8411979 173.650614,38.7754368 C173.715981,38.7112051 173.445392,38.63168 173.050149,38.5980348 C172.654906,38.5659189 172.249022,38.6729719 172.147171,38.8381393 M56.9065815,50.0878733 C56.9065815,52.140231 56.9886704,54.0320093 57.0890012,54.2935243 C57.2531789,54.7247947 60.7176326,54.7706745 93.2613028,54.7706745 L129.252705,54.7706745 L129.252705,66.4990882 L129.252705,78.2290311 L132.957344,78.2290311 C137.08611,78.2290311 136.984259,78.1739753 137.076989,80.4343215 C137.221404,83.9288352 137.55432,70.5288665 137.595365,59.5819393 C137.621207,52.7167875 137.637929,46.9313411 137.633369,46.7233525 C137.625768,46.4205457 129.470088,46.3456086 97.2654147,46.3517259 L56.9065815,46.3578432 L56.9065815,50.0878733" id="path2" fill="#647CFC"></path>
                <path d="M95.2143909,8.11643077 C95.9184718,8.17924211 97.0694909,8.17924211 97.7735717,8.11643077 C98.4761219,8.05208745 97.9006124,8 96.4939813,8 C95.0873503,8 94.5118407,8.05208745 95.2143909,8.11643077 M24.6226343,105.43264 C24.584369,127.678577 24.4512059,145.880077 24.3256958,145.880077 C24.2017164,145.880077 23.912431,145.458781 23.6859006,144.945567 C23.3782479,144.248514 23.2068195,144.115232 23.0139626,144.418564 C22.8302894,144.708109 22.7522282,144.60853 22.7430446,144.072336 C22.7277385,143.243533 21.9654944,142.042457 21.6547805,142.35345 C21.5461071,142.462221 21.6287601,142.757894 21.8384537,143.010671 C22.1537595,143.389071 22.1338616,143.470266 21.731311,143.479458 C14.5175437,143.628061 12.7389743,143.419711 13.3083614,142.497457 C13.392545,142.36111 13.3496879,142.286043 13.2134635,142.332002 C13.0772392,142.377962 12.901219,142.279915 12.8246885,142.112929 C12.7466273,141.947474 12.3410155,141.494007 11.9216283,141.104883 C11.502241,140.715759 11.1945883,140.341955 11.238976,140.273016 C11.3445881,140.107562 10.3542831,138.558726 9.96244681,138.276841 C9.77571232,138.143559 9.83387552,138.05164 10.1047936,138.045512 C10.3711198,138.040916 10.4338748,137.945933 10.256324,137.815714 C9.79101843,137.474082 8.60020345,135.698512 8.60020345,135.347688 C8.60020345,135.174574 8.45632606,135.033631 8.28030586,135.033631 C8.01397963,135.033631 9.01652951,137.258072 9.50326365,137.745243 C9.58591662,137.82797 9.69765119,138.099131 9.75122256,138.347312 C9.80632453,138.595494 9.9762223,138.845207 10.1292834,138.900359 C10.283875,138.95551 10.3343852,139.12556 10.2394873,139.277227 C10.1461201,139.428893 10.2134669,139.552984 10.3894871,139.552984 C10.5639767,139.552984 10.7078541,139.824145 10.7078541,140.155053 C10.7078541,140.485962 10.8425478,140.757123 11.0078538,140.757123 C11.1746903,140.757123 11.3093841,141.028284 11.3093841,141.360725 C11.3093841,141.691633 11.4456084,141.962794 11.6109143,141.962794 C11.7762203,141.962794 11.910914,142.243147 11.910914,142.586312 C11.910914,143.058163 12.0486689,143.165402 12.4772399,143.029055 C12.8476476,142.911092 13.1109126,143.022927 13.2379533,143.352304 C13.3986674,143.773599 13.3558103,143.793515 12.9716271,143.474862 C12.6854029,143.237405 12.5139745,143.214425 12.5139745,143.415115 C12.5139745,143.591293 12.6486682,143.818027 12.8139742,143.92067 C12.9808107,144.023312 13.1155045,144.371073 13.1155045,144.692789 C13.1155045,145.012974 13.2517288,145.276475 13.4170347,145.276475 C13.5823407,145.276475 13.7170344,145.480229 13.7170344,145.72841 C13.7170344,145.976592 13.8532587,146.180346 14.0185647,146.180346 C14.1838706,146.180346 14.3200949,146.3841 14.3200949,146.632281 C14.3200949,146.880462 14.4547886,147.084216 14.6200946,147.084216 C14.7869311,147.084216 14.9216249,147.32627 14.9216249,147.620411 C14.9216249,147.916083 15.1925429,148.352699 15.5231548,148.590156 C15.8552973,148.829146 16.1262153,149.198354 16.1262153,149.4113 C16.1262153,149.622713 16.2609091,149.795828 16.426215,149.795828 C16.5915209,149.795828 16.7277453,149.999581 16.7277453,150.247763 C16.7277453,150.495944 16.862439,150.699698 17.0292755,150.699698 C17.1945815,150.699698 17.3292752,150.941751 17.3292752,151.235892 C17.3292752,151.530033 17.6001932,151.966649 17.9323357,152.205638 C18.2629476,152.444628 18.5338657,152.787792 18.5338657,152.967034 C18.5338657,153.146276 19.0083549,153.811157 19.5869257,154.445399 C20.1670271,155.078108 20.6399857,155.709285 20.6399857,155.848696 C20.6399857,155.988106 21.114475,156.57792 21.6945764,157.15701 C22.2731471,157.737632 22.7476364,158.351957 22.7476364,158.523539 C22.7476364,158.69359 22.8838607,158.834532 23.0491667,158.834532 C23.2144726,158.834532 23.3491663,158.978539 23.3491663,159.154717 C23.3491663,159.330895 25.0435522,161.155488 27.1129376,163.208346 C29.182323,165.261204 30.8751782,167.102649 30.8751782,167.298743 C30.8751782,167.816553 31.8210955,168.453859 32.6062987,168.466115 L33.2828285,168.475306 L33.2782367,154.240113 C33.2751755,145.569084 33.1603797,139.827209 32.9812983,139.552984 C32.7777271,139.235863 32.6736455,139.775121 32.6353803,141.360725 L32.5802783,143.620401 L32.3797683,141.81266 L32.180789,140.004919 L32.1287482,141.737593 L32.0782381,143.468734 L28.7675275,143.468734 L25.456817,143.468734 L25.456817,145.327031 C25.456817,146.348864 25.3557967,147.082684 25.2302866,146.958594 C25.1063072,146.834503 24.9348788,128.340394 24.847634,105.860063 L24.6899811,64.9867346 L24.6226343,105.43264 M166.370943,104.605368 C166.31431,119.931335 166.16431,133.218231 166.0388,134.129761 L165.809209,135.787367 L165.767882,134.354963 L165.725025,132.92409 L162.414315,132.92409 L159.103604,132.92409 L159.060747,131.945152 C159.019421,131.002982 159.010237,131.010642 158.802074,132.171886 C158.598503,133.31015 158.583197,133.276446 158.538809,131.568284 C158.505135,130.278354 158.408707,129.890762 158.200544,130.212478 C158.021463,130.489767 157.906667,136.816861 157.903606,146.557214 L157.899014,162.450014 L162.380641,162.450014 L166.860738,162.450014 L168.564308,160.340472 C169.499511,159.180761 170.396449,158.230931 170.554101,158.230931 C170.713285,158.230931 170.841856,158.057816 170.841856,157.846403 C170.841856,157.634989 171.112774,157.265781 171.444917,157.026791 C171.775529,156.787802 172.046447,156.418594 172.046447,156.20718 C172.046447,155.995766 172.588283,155.263478 173.249507,154.580213 C173.912261,153.896948 174.454097,153.150872 174.454097,152.922607 C174.454097,152.694341 174.567362,152.507439 174.705117,152.507439 C174.841341,152.507439 175.145933,152.135167 175.380116,151.678636 C175.612769,151.223637 176.042871,150.630759 176.333687,150.362662 C176.624503,150.094564 176.861747,149.654885 176.861747,149.383724 C176.861747,149.114095 176.975013,148.891957 177.112767,148.891957 C177.250522,148.891957 177.553583,148.519685 177.787767,148.063154 C178.02195,147.608155 178.450521,147.015277 178.741337,146.74718 C179.032153,146.480615 179.270928,146.039403 179.270928,145.768242 C179.270928,145.498613 179.405622,145.276475 179.570928,145.276475 C179.736234,145.276475 179.872458,145.012974 179.872458,144.692789 C179.872458,144.371073 180.007152,144.023312 180.173988,143.92067 C180.339294,143.818027 180.473988,143.471798 180.473988,143.150082 C180.473988,142.828365 180.6546,142.564864 180.875008,142.564864 C181.277559,142.564864 183.284189,138.903423 183.284189,138.16807 C183.284189,137.948997 183.382148,137.832566 183.501536,137.906101 C183.622454,137.981168 183.899494,137.432718 184.119902,136.688174 C184.33878,135.94363 184.625004,135.335432 184.753575,135.335432 C184.883677,135.335432 184.989289,135.074995 184.989289,134.757874 C184.989289,134.439222 185.159187,134.122101 185.365819,134.053162 C185.664288,133.952051 185.662758,133.829492 185.355105,133.45722 C184.877555,132.87813 177.656134,132.671312 177.313277,133.227422 C177.166339,133.463348 176.99338,133.460284 176.697972,133.215167 C176.154605,132.763231 175.568381,133.150823 175.748993,133.840216 C175.846953,134.215552 175.759708,134.335047 175.473484,134.226276 C175.199504,134.120569 175.055627,134.282959 175.055627,134.699659 C175.055627,135.048951 174.920933,135.335432 174.755627,135.335432 C174.590321,135.335432 174.454097,135.606593 174.454097,135.937502 C174.454097,136.26841 174.319403,136.539571 174.152567,136.539571 C173.987261,136.539571 173.852567,136.71575 173.852567,136.931759 C173.852567,137.486337 173.143894,138.944786 172.874507,138.94785 C172.750527,138.949382 172.647977,139.153136 172.647977,139.401317 C172.647977,139.651031 172.513283,139.853252 172.347977,139.853252 C172.18114,139.853252 172.046447,140.057006 172.046447,140.305188 C172.046447,140.554901 171.910222,140.757123 171.744916,140.757123 C171.57961,140.757123 171.444917,141.066584 171.444917,141.444984 C171.444917,141.821852 171.173999,142.325874 170.841856,142.564864 C170.511244,142.803853 170.240326,143.211361 170.240326,143.468734 C170.240326,143.72764 169.969408,144.133615 169.638796,144.372605 C169.306654,144.611594 169.035736,145.019102 169.035736,145.276475 C169.035736,145.535381 168.764818,145.941356 168.434206,146.180346 C168.103594,146.419335 167.832676,146.797735 167.832676,147.021405 C167.832676,147.425849 167.130126,148.289887 166.801044,148.289887 C166.707677,148.289887 166.595943,132.190269 166.553086,112.513469 L166.475024,76.7370506 L166.370943,104.605368 M100.785813,144.372605 C100.747548,166.328997 100.82714,184.466154 100.961833,184.677567 C101.145507,184.967112 102.216934,185.04218 105.246012,184.979368 L109.286824,184.895109 L109.363354,164.181156 C109.415395,150.428537 109.338865,143.468734 109.138355,143.468734 C108.954681,143.468734 108.816927,142.073097 108.787845,139.929852 L108.741927,136.389437 L108.44958,139.929852 L108.158764,143.468734 L105.034788,143.468734 L101.912343,143.468734 L101.912343,141.844831 C101.912343,140.682056 101.783771,140.170373 101.462343,140.047814 C101.073568,139.89768 101.00316,137.536893 100.934282,122.164967 C100.889895,112.423082 100.822548,122.417745 100.785813,144.372605 M138.065363,127.952802 C138.002608,130.439212 137.867914,136.182619 137.766894,140.718823 L137.58169,148.96396 L133.894449,148.911873 C131.065881,148.873573 130.193433,148.953236 130.147515,149.253505 C130.115372,149.469515 130.006698,148.22248 129.905678,146.482147 C129.804658,144.741813 129.695984,151.215977 129.663842,160.867475 L129.604148,178.417882 L133.828633,178.417882 C136.92965,178.417882 138.089853,178.316771 138.195465,178.041013 C138.273526,177.832664 138.302607,165.461894 138.25975,150.549564 C138.215363,135.635701 138.128118,125.467924 138.065363,127.952802 M13.9833606,126.664404 C14.1211156,127.500867 14.1639727,127.54223 14.2588705,126.940161 C14.3200949,126.547973 14.2466256,126.102166 14.0950952,125.950499 C13.9282586,125.783513 13.8838709,126.065398 13.9833606,126.664404 M187.625,127.050464 C187.545409,127.464099 187.597449,127.802668 187.739796,127.802668 C187.882143,127.802668 188,127.464099 188,127.050464 C188,126.635296 187.947959,126.296728 187.883674,126.296728 C187.820919,126.296728 187.704592,126.635296 187.625,127.050464 M5.00020754,127.125531 C4.99408509,127.497803 5.12418699,127.802668 5.28949292,127.802668 C5.45479886,127.802668 5.59102319,128.133576 5.59102319,128.53802 C5.59102319,128.942464 5.71806386,129.351503 5.87265553,129.448018 C6.25683876,129.685476 5.96602277,128.204047 5.43796214,127.229706 C5.02622791,126.472906 5.01245242,126.469842 5.00020754,127.125531 M178.253072,127.275665 C178.156644,127.657129 177.751032,128.809181 176.965829,130.937107 C176.664299,131.756718 176.627564,132.208653 176.847972,132.427727 C177.06838,132.648333 177.163278,132.594713 177.163278,132.250017 C177.163278,131.977324 177.3194,131.658671 177.510726,131.540708 C177.740318,131.398234 177.775522,131.457981 177.614808,131.71995 C177.460216,131.971196 177.489298,132.040135 177.69593,131.91298 C177.875011,131.802677 177.974501,131.218992 177.917869,130.61539 C177.862767,130.01332 177.940828,129.268776 178.092358,128.962379 C178.243889,128.655983 178.502562,128.13664 178.667868,127.807264 C179.047459,127.051996 179.045929,126.898797 178.658684,126.898797 C178.488786,126.898797 178.305113,127.068847 178.253072,127.275665 M186.873471,128.87046 C186.619389,129.147749 186.601022,129.340779 186.818369,129.474062 C187.233164,129.729903 187.476531,129.470998 187.349491,128.910292 C187.263776,128.53802 187.185715,128.531892 186.873471,128.87046 M186.072961,130.741013 C185.96888,131.030558 185.690309,131.598924 185.454595,132.003367 C184.969391,132.838299 185.097962,133.281042 185.751533,133.029797 C185.996431,132.936345 186.19388,132.478282 186.19388,132.006431 C186.19388,131.536112 186.328573,131.068857 186.493879,130.966214 C186.867348,130.736417 186.890307,130.212478 186.529083,130.212478 C186.383675,130.212478 186.178573,130.449936 186.072961,130.741013 M6.46959362,131.041281 C6.62418529,131.330826 6.82316465,131.805741 6.91347067,132.096818 C7.00377669,132.386363 7.19969484,132.623821 7.34969467,132.623821 C7.50122511,132.623821 7.40938848,132.148906 7.14612347,131.568284 C6.88438907,130.989194 6.56143025,130.514279 6.42826714,130.514279 C6.29510403,130.514279 6.31347135,130.751737 6.46959362,131.041281 M18.1573355,136.738729 C18.3639679,136.822988 18.5338657,137.083426 18.5338657,137.317819 C18.5338657,137.552213 18.6685594,137.745243 18.8353959,137.745243 C19.0007019,137.745243 19.1353956,138.016404 19.1353956,138.347312 C19.1353956,138.678221 19.2716199,138.949382 19.4369259,138.949382 C19.6022318,138.949382 19.7384561,139.180712 19.7384561,139.462597 C19.7384561,139.883892 19.8042724,139.903808 20.1134557,139.575963 C20.414986,139.255779 20.414986,139.14854 20.1134557,139.038237 C19.9068233,138.961638 19.7384561,138.639921 19.7384561,138.322801 C19.7384561,138.004148 19.6022318,137.745243 19.4369259,137.745243 C19.2716199,137.745243 19.1353956,137.474082 19.1353956,137.143173 C19.1353956,136.711154 18.9425387,136.547231 18.4588657,136.564083 C18.0853968,136.576339 17.9507031,136.656002 18.1573355,136.738729 M20.1884556,140.155053 C20.069068,140.349615 20.1058026,140.645288 20.2711086,140.810742 C20.4731492,141.011432 20.6461082,140.993048 20.7915162,140.757123 C20.9109038,140.562561 20.8741691,140.26842 20.7088632,140.102966 C20.5083532,139.902276 20.3353942,139.919128 20.1884556,140.155053 M20.713455,141.259614 C20.5068226,141.342341 20.4088635,141.529243 20.4976389,141.674781 C20.6935571,141.99037 21.5430459,141.708485 21.5430459,141.328553 C21.5430459,141.037476 21.3103931,141.019092 20.713455,141.259614" id="path3" fill="#6C4CC4"></path>
            </g>
        </g>
    </g>
</svg>