<svg id="Layer_1" data-name="Layer 1" xmlns="http://www.w3.org/2000/svg" viewBox="0 0 516.29 500"><defs><style>.cls-1{fill:#003a5c;}.cls-2{fill:#19a3a3;}.cls-3{fill:#0089bf;}.cls-4{fill:#75a501;}</style></defs><title>BGL_Dark</title><path class="cls-1" d="M81.84,139.93A6.64,6.64,0,0,1,88,133.76h22.72a6.43,6.43,0,0,1,6.17,6.17v63.38c5.89-2.52,18.79-5.6,31.69-5.6,38.42,0,62.82,29.72,62.82,67.59,0,37-25.52,67.87-60.86,67.87-28.32,0-43.19-19.35-43.19-19.35l-3.08,10.09c-1.41,3.65-3.37,6.17-6.45,6.17H88a6.41,6.41,0,0,1-6.17-6.17ZM145.5,301.19c20.2,0,30.57-17.66,30.57-35.89s-10.94-35.62-32.25-35.62c-16.27,0-26.92,7.29-26.92,7.29v46.28C119.7,290.54,128.67,301.19,145.5,301.19Z"/><path class="cls-1" d="M348.27,331.48c0,41.79-29.17,62.83-64.51,62.83-21.31,0-40.38-9.82-46.55-14.59-2-1.68-2.81-5.05-1.41-7.29l8.42-18.23c1.12-2.52,4.77-3.36,7.57-1.68,4.77,2.8,17.39,9.81,30.85,9.81,19.91,0,30.57-6.73,30.57-30.85v-3.64a96.36,96.36,0,0,1-31.13,5.33c-38.7,0-64.23-29.73-64.23-67.59,0-39.27,26.65-67.87,62-67.87a55.93,55.93,0,0,1,42.35,19.35l3.37-10.38c1.12-3.65,3.08-6.17,6.17-6.17H342.1a6.23,6.23,0,0,1,6.17,6.17Zm-35.06-83.85c-2.8-7.29-11.78-17.95-28.61-17.95-20.19,0-30.57,17.67-30.57,35.9s10.94,35.61,32.26,35.61c16.26,0,26.92-7.29,26.92-7.29Z"/><path class="cls-1" d="M370.42,139.93a6.64,6.64,0,0,1,6.17-6.17H399.3a6.64,6.64,0,0,1,6.17,6.17v184a6.41,6.41,0,0,1-6.17,6.17H376.59a6.41,6.41,0,0,1-6.17-6.17Z"/><path class="cls-1" d="M483.29,264.42c17.88,0,33,15.13,33,33,0,17.54-15.12,32.66-33,32.66S450.63,315,450.63,297.42C450.63,279.55,465.41,264.42,483.29,264.42Z"/><path class="cls-2" d="M492.4,242.52a8.1,8.1,0,0,1-8.07-7.59A234.83,234.83,0,0,0,271.59,16.18,8.09,8.09,0,1,1,273.06.06,251,251,0,0,1,500.49,233.91a8.1,8.1,0,0,1-7.57,8.59Z"/><path class="cls-1" d="M8.2,235.35a6.28,6.28,0,0,1-.75,0A8.1,8.1,0,0,1,.13,226.5,250.64,250.64,0,0,1,227.28,0a8.1,8.1,0,1,1,1.45,16.13A234.45,234.45,0,0,0,16.25,228,8.09,8.09,0,0,1,8.2,235.35Z"/><path class="cls-3" d="M228.23,500l-.72,0A250.4,250.4,0,0,1,0,272.37a8.1,8.1,0,0,1,16.13-1.43,234.22,234.22,0,0,0,212.78,212.9,8.1,8.1,0,0,1-.71,16.16Z"/><path class="cls-4" d="M271.81,500a8.1,8.1,0,0,1-.71-16.16c80.84-7.19,153.46-57,189.53-130a8.09,8.09,0,1,1,14.51,7.18C436.59,439.05,359,492.28,272.54,500Z"/></svg>