<?xml version="1.0" encoding="UTF-8"?>
<svg width="192px" height="177px" viewBox="0 0 192 177" version="1.1" xmlns="http://www.w3.org/2000/svg" xmlns:xlink="http://www.w3.org/1999/xlink">
    <!-- Generator: Sketch 51.3 (57544) - http://www.bohemiancoding.com/sketch -->
    <title>Macquarie_Group_logo</title>
    <desc>Created with Sketch.</desc>
    <defs></defs>
    <g id="Page-1" stroke="none" stroke-width="1" fill="none" fill-rule="evenodd">
        <g id="Desktop-Copy-6" transform="translate(-1.000000, -10.000000)" fill="#000000" fill-rule="nonzero">
            <g id="Macquarie_Group_logo" transform="translate(1.000000, 8.000000)">
                <g id="g4222" transform="translate(97.000000, 89.963731) scale(-1, 1) rotate(-180.000000) translate(-97.000000, -89.963731) ">
                    <g id="g4224-Clipped" transform="translate(0.000000, 0.000000)">
                        <g id="g4224" transform="translate(0.182477, 0.102348)">
                            <g id="g4230" transform="translate(0.478869, 0.247785)">
                                <path d="M160.401958,28.778308 C153.821452,22.6057042 146.591098,17.7362056 138.818151,14.3755657 C137.285013,13.8331248 135.745566,13.1846896 134.319684,12.7544778 C135.745566,13.6211364 137.285013,14.5937891 138.818151,15.5664418 C146.704663,20.8723871 154.042275,27.1509852 160.401958,34.5207 C172.786937,48.9234423 181.102476,67.3227897 180.780706,89.7374471 C180.339062,111.927646 172.345293,129.803257 160.401958,143.875547 C154.15584,151.126798 146.704663,157.417866 138.818151,162.82357 C137.285013,163.802458 135.745566,164.775111 134.319684,165.747764 C135.745566,164.987099 137.285013,164.338664 138.818151,163.59047 C146.704663,159.687389 153.935018,154.718131 160.401958,148.751281 C175.846904,134.142785 185.929022,113.779427 186.364357,89.7374471 C186.806002,65.5957076 176.067726,43.617497 160.401958,28.778308 M123.694975,55.4389686 C121.064034,53.9301099 118.439403,52.838993 115.808462,52.315257 C118.653916,54.1545682 121.291166,56.0936387 123.694975,58.2571675 C131.581487,65.5084183 136.408033,74.9356678 136.294467,89.1139517 C136.079954,103.086482 131.366974,112.613491 123.694975,119.864742 C121.291166,122.146735 118.653916,124.09204 115.808462,126.037346 C118.439403,125.077163 121.064034,123.880052 123.694975,122.364958 C129.827527,118.680101 135.196665,113.155932 138.818151,106.334893 C141.449092,101.240936 143.083177,95.3987847 143.196743,89.1139517 C143.196743,82.6171303 141.556348,76.5567557 138.818151,71.2632802 C135.196665,64.4360063 129.72658,58.9056027 123.694975,55.4389686 M59.536619,89.1763013 C59.536619,109.838937 76.3001898,128.338043 95.600063,129.136117 C114.887318,128.338043 131.644579,109.838937 131.644579,89.1763013 C131.644579,68.5074309 114.887318,50.0083242 95.600063,49.2102502 C76.3001898,50.0020893 59.536619,68.5074309 59.536619,89.1763013 M67.7070459,55.3329744 C61.5744938,58.7996085 56.0917904,64.3175422 52.4766131,71.2632802 C49.618541,76.5567557 47.9907649,82.6171303 48.0980214,89.1139517 C48.0980214,95.3987847 49.738416,101.240936 52.4766131,106.334893 C55.9782246,113.268161 61.4672373,118.786095 67.7070459,122.470952 C70.1171641,123.880052 72.7417954,125.077163 75.372736,126.037346 C72.5335915,124.191799 70.0035983,122.240259 67.7070459,120.095435 C59.8142243,112.72572 55.1075537,103.192476 55.0002971,89.1139517 C54.7794747,74.8296736 59.7069677,65.408659 67.7070459,58.1511733 C70.0035983,55.9938794 72.5335915,54.0361041 75.372736,52.315257 C72.7417954,52.838993 70.1171641,53.9301099 67.7070459,55.3329744 M52.3693566,14.3755657 C44.5774823,17.7362056 37.3534369,22.6057042 30.772931,28.778308 C15.1008535,43.617497 4.3688874,65.5957076 4.8105321,89.7374471 C5.24586758,113.779427 15.3279851,134.142785 30.772931,148.751281 C37.2398711,154.718131 44.4702257,159.687389 52.3693566,163.59047 C53.8898761,164.338664 55.4293234,164.987099 56.8552048,165.747764 C55.4293234,164.775111 53.8898761,163.802458 52.3693566,162.82357 C44.4702257,157.417866 37.0190488,151.126798 30.772931,143.875547 C18.8359058,129.803257 10.8358276,111.927646 10.3878737,89.7374471 C10.066104,67.3227897 18.4005703,48.9234423 30.772931,34.5207 C37.1326146,27.1509852 44.4702257,20.8723871 52.3693566,15.5664418 C53.8898761,14.5937891 55.4293234,13.6211364 56.8552048,12.7544778 C55.4293234,13.1846896 53.8898761,13.8331248 52.3693566,14.3755657 M95.5874446,177.55053 C41.6184628,177.55053 0.110170699,137.983516 0.110170699,89.1763013 C0.110170699,40.3690863 41.6184628,0.795837283 95.5874446,0.795837283 C149.556426,0.795837283 191.077337,40.3690863 191.077337,89.1763013 C191.077337,137.983516 149.569045,177.55053 95.5874446,177.55053" id="path4232"></path>
                            </g>
                        </g>
                    </g>
                </g>
            </g>
        </g>
    </g>
</svg>