<?xml version="1.0" encoding="UTF-8"?>
<svg width="192px" height="79px" viewBox="0 0 192 79" version="1.1" xmlns="http://www.w3.org/2000/svg" xmlns:xlink="http://www.w3.org/1999/xlink">
    <!-- Generator: Sketch 51.3 (57544) - http://www.bohemiancoding.com/sketch -->
    <title>Westpac_logo</title>
    <desc>Created with Sketch.</desc>
    <defs></defs>
    <g id="Page-1" stroke="none" stroke-width="1" fill="none" fill-rule="evenodd">
        <g id="Desktop-Copy-4" transform="translate(-1.000000, -58.000000)" fill="#ED1A3A" fill-rule="nonzero">
            <g id="Westpac_logo" transform="translate(1.000000, 58.000000)">
                <path d="M0,0 C2.72741121,1.15150862 4.51778017,8.1950431 4.51778017,8.1950431 L21.4331897,67.03125 C23.383156,74.394181 29.5525862,78.2731681 36.4574353,78.2731681 L73.5452586,78.2731681 C70.8892914,77.7982759 67.9768319,69.9730603 67.9768319,69.9730603 L49.1702586,11.4520474 C46.4637259,2.51314655 41.8997845,0 34.9865302,0 L0,0 Z M156.966595,0 C150.03653,0 145.552404,2.51314655 142.887931,11.4520474 L123.976293,69.9730603 C123.976293,69.9730603 121.093252,77.7982759 118.407866,78.2731681 L155.49569,78.2731681 C162.434159,78.2731681 168.54472,74.394181 170.519935,67.03125 L187.435345,8.1950431 C187.435345,8.1950431 189.280213,1.15150862 192.05819,0 L156.966595,0 Z M75.4364224,0.420258621 L75.4364224,78.2731681 L116.726832,78.2731681 L116.726832,0.420258621 L75.4364224,0.420258621 Z" id="path2448"></path>
            </g>
        </g>
    </g>
</svg>